<svg width="28" height="28" viewBox="0 0 28 28" fill="none" xmlns="http://www.w3.org/2000/svg">
<path d="M23.3333 8.16675H4.66659C3.37792 8.16675 2.33325 9.21142 2.33325 10.5001V22.1667C2.33325 23.4554 3.37792 24.5001 4.66659 24.5001H23.3333C24.6219 24.5001 25.6666 23.4554 25.6666 22.1667V10.5001C25.6666 9.21142 24.6219 8.16675 23.3333 8.16675Z" stroke="#003ADF" stroke-width="2.33333" stroke-linecap="round" stroke-linejoin="round"/>
<path d="M18.6666 24.5V5.83333C18.6666 5.21449 18.4208 4.621 17.9832 4.18342C17.5456 3.74583 16.9521 3.5 16.3333 3.5H11.6666C11.0477 3.5 10.4543 3.74583 10.0167 4.18342C9.57909 4.621 9.33325 5.21449 9.33325 5.83333V24.5" stroke="#003ADF" stroke-width="2.33333" stroke-linecap="round" stroke-linejoin="round"/>
</svg>
