<svg width="44" height="44" viewBox="0 0 44 44" fill="none" xmlns="http://www.w3.org/2000/svg">
<path d="M12.3201 8.72667H28.3067C29.1134 8.72667 29.7734 8.06667 29.7734 7.26V4.32667C29.7734 1.90667 27.7934 0 25.4467 0H15.2534C12.8334 0 10.9267 1.98 10.9267 4.32667V7.26C10.8534 8.06667 11.5134 8.72667 12.3201 8.72667Z" fill="#003ADF"/>
<path d="M36.3 3.59375H34.8333C34.3933 3.59375 34.1 3.88708 34.1 4.32708V7.26042C34.1 10.4871 31.46 13.0537 28.3067 13.0537H12.32C9.09333 13.0537 6.52667 10.4137 6.52667 7.26042V4.32708C6.52667 3.88708 6.23333 3.59375 5.79333 3.59375H4.32667C1.90667 3.59375 0 5.57375 0 7.92042V37.6937C0 40.1137 1.98 42.0204 4.32667 42.0204H18.9933C21.0467 42.0204 21.2667 40.3337 21.2667 39.7471V24.0537C21.2667 22.3671 22.22 22.0004 22.7333 22.0004H38.5733C40.3333 22.0004 40.6267 20.4604 40.6267 19.9471V8.06708C40.7 5.57375 38.72 3.59375 36.3 3.59375Z" fill="#003ADF"/>
<path d="M42.4601 29.6266H26.4734C26.0334 29.6266 25.6667 29.2599 25.6667 28.8199V27.2066C25.6667 26.7666 26.0334 26.3999 26.4734 26.3999H42.4601C42.9001 26.3999 43.2667 26.7666 43.2667 27.2066V28.8199C43.2667 29.2599 42.9001 29.6266 42.4601 29.6266ZM42.4601 36.8132H26.4734C26.0334 36.8132 25.6667 36.4466 25.6667 36.0066V34.3932C25.6667 33.9532 26.0334 33.5866 26.4734 33.5866H42.4601C42.9001 33.5866 43.2667 33.9532 43.2667 34.3932V36.0066C43.2667 36.4466 42.9001 36.8132 42.4601 36.8132ZM42.4601 43.9999H26.4734C26.0334 43.9999 25.6667 43.6332 25.6667 43.1932V41.5799C25.6667 41.1399 26.0334 40.7732 26.4734 40.7732H42.4601C42.9001 40.7732 43.2667 41.1399 43.2667 41.5799V43.1932C43.2667 43.6332 42.9001 43.9999 42.4601 43.9999Z" fill="#003ADF"/>
</svg>
