<svg width="48" height="55" viewBox="0 0 48 55" fill="none" xmlns="http://www.w3.org/2000/svg">
<path fill-rule="evenodd" clip-rule="evenodd" d="M19.9178 32.4875C14.6208 32.3943 9.45644 32.1117 4.18139 31.6381C4.13256 31.6334 3.95515 31.6353 3.91446 31.6353C3.09171 31.6353 2.26977 32.2469 1.6521 33.4432C0.940022 34.8241 0.455811 37.048 0.455811 39.5608C0.455811 42.0737 0.940022 44.2975 1.6521 45.6784C2.26977 46.8747 3.09171 47.4864 3.91446 47.4864C3.95515 47.4864 4.17732 47.4873 4.24975 47.4742C9.51015 46.485 14.6501 45.8714 19.917 45.6579V53.0809C19.917 53.4343 20.0912 53.7569 20.3671 53.9145C20.6429 54.073 20.9725 54.0385 21.2191 53.8268L23.986 51.4491L26.753 53.8268C26.9995 54.0385 27.3291 54.073 27.605 53.9145C27.8809 53.7569 28.055 53.4343 28.055 53.0809V45.6607C33.3097 45.877 38.5555 46.4896 43.7923 47.4742C43.8647 47.4873 44.0869 47.4864 44.1276 47.4864C44.9512 47.4864 45.7723 46.8747 46.39 45.6784C47.102 44.2975 47.5862 42.0737 47.5862 39.5608C47.5862 37.048 47.102 34.8241 46.39 33.4432C45.7723 32.2469 44.9512 31.6353 44.1276 31.6353C44.0869 31.6353 43.9095 31.6334 43.8607 31.6381C38.6084 32.1099 33.339 32.3924 28.0542 32.4866C28.0168 30.9789 26.9385 29.7704 25.6136 29.7704H22.3584C21.0336 29.7704 19.9553 30.9798 19.9178 32.4875ZM26.4274 43.9012C25.7162 44.401 24.8804 44.6891 23.986 44.6891C23.0917 44.6891 22.2559 44.401 21.5446 43.9012V51.216L23.4978 49.5377C23.7875 49.2887 24.1846 49.2887 24.4743 49.5377L26.4274 51.216V43.9012ZM44.1276 33.5001C44.4743 33.5001 44.729 33.8889 44.9886 34.3924C45.5892 35.557 45.9586 37.4414 45.9586 39.5608C45.9586 41.6802 45.5892 43.5646 44.9886 44.7292C44.729 45.2327 44.4743 45.6215 44.1276 45.6215C43.7809 45.6215 43.5262 45.2327 43.2666 44.7292C42.666 43.5646 42.2965 41.6802 42.2965 39.5608C42.2965 37.4414 42.666 35.557 43.2666 34.3924C43.5262 33.8889 43.7809 33.5001 44.1276 33.5001ZM3.91446 33.5001C4.26114 33.5001 4.51586 33.8889 4.77546 34.3924C5.37605 35.557 5.74551 37.4414 5.74551 39.5608C5.74551 41.6802 5.37605 43.5646 4.77546 44.7292C4.51586 45.2327 4.26114 45.6215 3.91446 45.6215C3.56778 45.6215 3.31306 45.2327 3.05346 44.7292C2.45288 43.5646 2.08341 41.6802 2.08341 39.5608C2.08341 37.4414 2.45288 35.557 3.05346 34.3924C3.31306 33.8889 3.56778 33.5001 3.91446 33.5001ZM41.7464 33.6875C37.1948 34.0493 32.631 34.2703 28.055 34.3514V36.6797C28.4432 37.461 28.6654 38.3655 28.6654 39.3277C28.6654 40.29 28.4432 41.1944 28.055 41.9758V43.7949C32.592 43.9795 37.1216 44.4541 41.6447 45.2066C41.0547 43.8182 40.6689 41.8042 40.6689 39.5608C40.6689 37.1916 41.0994 35.0787 41.7464 33.6875ZM6.29646 33.6875C6.94261 35.0787 7.37311 37.1916 7.37311 39.5608C7.37311 41.8042 6.98737 43.8164 6.39818 45.2057C10.914 44.4495 15.3687 43.974 19.917 43.7921V41.9758C19.5289 41.1944 19.3067 40.29 19.3067 39.3277C19.3067 38.3655 19.5289 37.461 19.917 36.6797V34.3523C15.3296 34.2722 10.8407 34.0512 6.29646 33.6875ZM23.986 35.8312C25.6706 35.8312 27.0378 37.3976 27.0378 39.3277C27.0378 41.2578 25.6706 42.8243 23.986 42.8243C22.3015 42.8243 20.9343 41.2578 20.9343 39.3277C20.9343 37.3976 22.3015 35.8312 23.986 35.8312ZM26.4274 34.7542V32.5677C26.4274 32.053 26.0629 31.6353 25.6136 31.6353H22.3584C21.9092 31.6353 21.5446 32.053 21.5446 32.5677V34.7542C22.2559 34.2544 23.0917 33.9663 23.986 33.9663C24.8804 33.9663 25.7162 34.2544 26.4274 34.7542ZM9.33763 11.6881V21.3405C9.33763 21.3535 9.33763 21.3656 9.33844 21.3787H8.52383C8.07461 21.3787 7.71003 21.7964 7.71003 22.3111V28.3718C7.71003 28.8865 8.07461 29.3042 8.52383 29.3042H11.779C12.2282 29.3042 12.5928 28.8865 12.5928 28.3718V22.3111C12.5928 21.7964 12.2282 21.3787 11.779 21.3787H10.9644C10.9652 21.3656 10.9652 21.3535 10.9652 21.3405V12.7053L13.4074 14.2317C13.4066 14.2466 13.4066 14.2616 13.4066 14.2765V23.2389C13.4066 24.5284 14.1757 25.651 15.2686 25.9569L23.807 28.3448C23.934 28.3811 24.0666 28.3811 24.1936 28.3448C24.1936 28.3448 30.0781 26.6944 32.7051 25.9569C33.7972 25.651 34.5654 24.5284 34.5654 23.2398C34.5654 20.3698 34.5654 14.2765 34.5654 14.2765C34.5654 14.255 34.5646 14.2336 34.5638 14.2121L39.4312 11.1706C39.6924 11.0065 39.8551 10.6932 39.8551 10.3519C39.8551 10.0107 39.6924 9.69644 39.4312 9.53326L24.3596 0.113988C24.1162 -0.037996 23.8233 -0.037996 23.5799 0.113988L8.50837 9.53326C8.24714 9.69644 8.08438 10.0107 8.08438 10.3519C8.08438 10.6932 8.24714 11.0065 8.50837 11.1706L9.33763 11.6881ZM10.9652 23.2435V27.4394H9.33763V23.2435H10.9652ZM12.0899 9.41951H19.8593C20.3085 9.41951 20.6731 9.83723 20.6731 10.3519C20.6731 10.8666 20.3085 11.2843 19.8593 11.2843H12.0899L23.9698 18.7092L26.1231 17.3628C26.5178 17.1166 27.0126 17.2835 27.2274 17.7348C27.4422 18.187 27.2966 18.7539 26.9027 19.0001L24.3596 20.5889C24.1162 20.7409 23.8233 20.7409 23.5799 20.5889L15.0342 15.249V23.2389C15.0342 23.6687 15.2906 24.0426 15.6552 24.1452L23.9991 26.4799L32.3177 24.1461C32.6815 24.0435 32.9378 23.6696 32.9378 23.2398V15.2285L29.3506 17.47C28.9559 17.7171 28.4611 17.5502 28.2463 17.098C28.0314 16.6467 28.1763 16.0798 28.571 15.8336L37.3421 10.3519L23.9698 1.99467L12.0899 9.41951Z" fill="#003ADF"/>
</svg>
