<svg width="153" height="153" viewBox="0 0 153 153" fill="none" xmlns="http://www.w3.org/2000/svg">
<path fill-rule="evenodd" clip-rule="evenodd" d="M86.5569 18.3886C81.0029 12.8342 71.997 12.8342 66.443 18.3886L61.667 23.1644L72.8162 34.3132C73.991 33.999 75.2256 33.8315 76.4999 33.8315C84.3552 33.8315 90.7227 40.1993 90.7227 48.0543C90.7227 49.3284 90.5549 50.5634 90.2413 51.7383L104.818 66.3143C105.992 66.0007 107.227 65.8328 108.501 65.8328C116.357 65.8328 122.724 72.2004 122.724 80.0556C122.724 87.9109 116.357 94.2785 108.501 94.2785C100.646 94.2785 94.2785 87.9109 94.2785 80.0556C94.2785 78.7813 94.4463 77.5467 94.7599 76.3719L83.6113 65.2227V99.7372C87.8625 102.196 90.7227 106.792 90.7227 112.057C90.7227 119.912 84.3552 126.28 76.4999 126.28C68.6447 126.28 62.2771 119.912 62.2771 112.057C62.2771 106.792 65.1373 102.196 69.3885 99.7372V60.3744C65.1373 57.9152 62.2771 53.3187 62.2771 48.0543C62.2771 46.7802 62.445 45.5453 62.7586 44.3703L51.61 33.2214L18.3886 66.443C12.8342 71.997 12.8342 81.0029 18.3886 86.5569L66.443 134.611C71.997 140.166 81.0029 140.166 86.5569 134.611L134.611 86.5569C140.166 81.0029 140.166 71.997 134.611 66.443L86.5569 18.3886ZM56.3858 8.3315C67.4948 -2.77719 85.5051 -2.77716 96.6138 8.33157L144.668 56.3858C155.777 67.4948 155.777 85.5051 144.668 96.6138L96.6138 144.668C85.5051 155.777 67.4948 155.777 56.3858 144.668L8.3315 96.6138C-2.77719 85.5051 -2.77716 67.4948 8.33157 56.3858L56.3858 8.3315Z" fill="#003ADF"/>
</svg>
