<svg width="232" height="198" viewBox="0 0 250 241" fill="none" xmlns="http://www.w3.org/2000/svg">
<path d="M38.4036 66.8639H42.2816H65.6574L64.2403 82.8484L52.0305 85.9541L39.8208 82.8484L38.976 73.3295H26.5177L28.2352 92.7084L52.0305 98.7591L75.8267 92.7084L79.1243 55.4892H37.3953L36.293 43.0521H80.2272L81.3276 30.6411H22.7336L25.9445 66.8639H38.4036Z" fill="#003ADF"/>
<path d="M0.711914 10.0166L0.92622 12.3311L10.0477 110.851L52.0306 121.525L94.0134 110.851L103.349 10.0166H0.711914ZM83.938 102.242L52.0306 110.355L20.1233 102.242L12.5863 20.8432H91.4748L83.938 102.242Z" fill="#003ADF"/>
<path d="M183.75 126.01L140.916 114.278L131.913 11.4219H235.587L226.584 114.278L183.75 126.01ZM151.011 105.82L183.75 114.824L216.489 105.82L223.583 22.335H143.917L151.011 105.82Z" fill="#003ADF"/>
<path d="M156.467 35.9761H211.033L206.122 94.0885L183.477 101.455L160.56 95.7255L158.104 76.0818H170.382V85.9036L183.477 88.3591L195.482 85.9036V71.1709H158.104L157.286 58.8936C158.407 57.8711 159.861 57.2895 161.378 57.2567C180.203 57.2567 195.482 58.8936 195.482 58.8936V49.0718H158.104L156.467 35.9761Z" fill="#003ADF"/>
<path d="M123.303 146.215C123.303 143.201 125.746 140.758 128.76 140.758H145.13C148.143 140.758 150.586 143.201 150.586 146.215C150.586 149.228 148.143 151.671 145.13 151.671H135.308C134.705 151.671 134.217 152.16 134.217 152.763V161.493C134.217 162.096 134.705 162.585 135.308 162.585H145.13C148.143 162.585 150.586 165.028 150.586 168.041V184.411C150.586 185.858 150.011 187.246 148.988 188.269L132.618 204.639C130.488 206.77 127.032 206.77 124.902 204.639C122.771 202.508 122.771 199.053 124.902 196.922L139.353 182.47C139.558 182.266 139.673 181.988 139.673 181.698V174.589C139.673 173.986 139.185 173.498 138.582 173.498H128.76C125.746 173.498 123.303 171.055 123.303 168.041V146.215Z" fill="#003ADF"/>
<path d="M112.39 146.215C112.39 143.201 109.948 140.758 106.934 140.758C103.92 140.758 101.477 143.201 101.477 146.215V184.972C101.477 185.945 100.302 186.432 99.6144 185.744L96.3404 182.47C96.1358 182.266 96.0208 181.988 96.0208 181.698V178.954C96.0208 175.941 93.5778 173.498 90.5642 173.498C87.5506 173.498 85.1077 175.941 85.1077 178.954V184.411C85.1077 185.858 85.6826 187.246 86.7058 188.269L103.076 204.639C104.636 206.199 106.983 206.667 109.022 205.822C111.061 204.977 112.39 202.988 112.39 200.781V146.215Z" fill="#003ADF"/>
<path fill-rule="evenodd" clip-rule="evenodd" d="M59.6591 137.617C58.2502 127.756 65.9025 118.933 75.8642 118.933H159.83C169.791 118.933 177.444 127.756 176.035 137.617L167.473 197.548C166.919 201.424 164.994 204.973 162.048 207.552L128.626 236.796C122.454 242.196 113.239 242.196 107.068 236.796L73.6461 207.552C70.6992 204.973 68.7743 201.424 68.2205 197.548L59.6591 137.617ZM75.8642 129.846C72.5436 129.846 69.9929 132.787 70.4625 136.074L79.024 196.004C79.2086 197.296 79.8502 198.48 80.8325 199.339L114.254 228.582C116.311 230.382 119.383 230.382 121.44 228.582L154.862 199.339C155.844 198.48 156.485 197.296 156.67 196.004L165.231 136.074C165.701 132.787 163.15 129.846 159.83 129.846H75.8642Z" fill="#003ADF"/>
</svg>
