<svg width="128" height="174" viewBox="0 0 128 174" fill="none" xmlns="http://www.w3.org/2000/svg">
<path d="M41.1443 133.976C41.1443 133.976 34.5185 137.83 45.8575 139.129C50.0077 139.743 54.8003 140.097 59.6651 140.097C67.4891 140.097 75.0966 139.194 82.3937 137.477L81.7225 137.606C84.4219 139.252 87.5616 140.818 90.8312 142.11L91.2571 142.255C57.3482 156.791 14.5109 141.41 41.1516 133.969L41.1443 133.976Z" fill="#003ADF"/>
<path d="M37.0013 115.007C37.0013 115.007 29.5743 120.507 40.9133 121.677C45.8719 122.297 51.61 122.658 57.4347 122.658C67.9798 122.658 78.2507 121.489 88.1245 119.28L87.1935 119.453C89.1783 121.316 91.553 122.795 94.1802 123.755L94.3246 123.799C53.3278 135.787 7.65399 124.744 37.0013 115.007Z" fill="#003ADF"/>
<path d="M71.9279 82.8308C80.2861 92.452 69.7337 101.106 69.7337 101.106C69.7337 101.106 90.9467 90.1351 81.2099 76.4358C72.1084 63.646 65.1288 57.2872 102.906 35.3813C102.906 35.3813 43.6055 50.1922 71.9279 82.8308Z" fill="#003ADF"/>
<path d="M116.779 148.007C116.779 148.007 121.672 152.049 111.387 155.167C91.8126 161.1 29.9205 162.89 12.7207 155.405C6.54229 152.713 18.134 148.981 21.7717 148.202C23.4462 147.776 25.3734 147.531 27.3582 147.531H27.7697H27.748C20.8767 142.687 -16.6772 157.044 8.69318 161.143C77.8319 172.36 134.729 156.091 116.8 148.007H116.779Z" fill="#003ADF"/>
<path d="M44.3271 95.3536C44.3271 95.3536 12.8433 102.831 33.1757 105.545C38.654 106 45.0417 106.252 51.4799 106.252C59.7009 106.252 67.8208 105.834 75.8181 105.018L74.8148 105.105C87.8428 104.008 100.929 101.64 100.929 101.64C97.8611 102.983 95.2627 104.397 92.8014 106.007L93.0107 105.877C61.0362 114.286 -0.718795 110.374 17.0585 101.77C24.897 97.7066 34.179 95.3247 44.0095 95.3247H44.3415H44.3271V95.3536Z" fill="#003ADF"/>
<path d="M100.799 126.931C133.293 110.042 118.273 93.8162 107.778 95.996C106.342 96.263 105.093 96.6095 103.888 97.0498L104.054 96.9992C104.74 96.0321 105.685 95.2886 106.79 94.87L106.833 94.8556C127.577 87.5657 143.542 116.372 100.135 127.768C100.402 127.53 100.618 127.249 100.777 126.938L100.784 126.924L100.799 126.931Z" fill="#003ADF"/>
<path d="M81.2099 0.00721774C81.2099 0.00721774 99.2109 18.0083 64.1327 45.6955C36.0124 67.9045 57.7162 80.5644 64.1327 95.036C47.7196 80.2252 35.6732 67.1899 43.7498 55.0497C55.6158 37.2363 88.4782 28.6039 81.2099 0V0.00721774Z" fill="#003ADF"/>
<path d="M47.5245 172.692C78.7051 174.692 126.631 171.581 127.786 156.828C127.786 156.828 125.606 162.421 102.004 166.868C88.9687 169.22 73.963 170.563 58.6398 170.563C46.0881 170.563 33.753 169.661 21.6777 167.921L23.0563 168.087C23.0563 168.087 27.0477 171.393 47.5461 172.707L47.5245 172.692Z" fill="#003ADF"/>
</svg>
