<svg width="174" height="118" viewBox="0 0 174 118" fill="none" xmlns="http://www.w3.org/2000/svg">
<path d="M118.411 11.9252C117.566 11.9252 117.003 12.0389 116.435 12.1796V12.2662H116.521C116.917 12.997 117.566 13.5654 118.07 14.2421C118.465 15.0054 118.8 15.7903 119.168 16.5536L119.282 16.4399C119.959 15.9581 120.3 15.2003 120.3 14.0418C120.018 13.7008 119.959 13.3381 119.71 13.0241C119.428 12.5423 118.806 12.2933 118.411 11.9252ZM41.6391 107.161H34.9591C34.7318 95.8855 34.0551 85.2809 33.0157 75.3312H32.9616L22.7846 107.161H17.6799L7.58404 75.3312H7.49743C6.76663 84.8586 6.28485 95.4904 6.08997 107.161H0C0.395171 92.9515 1.38039 79.6456 2.96108 67.2383H11.2488L20.8899 96.5622H20.9441L30.6718 67.2383H38.5644C40.3129 81.7893 41.3576 95.0952 41.6662 107.161H41.6391ZM70.622 77.7023C67.9153 92.4752 64.3046 103.221 59.882 109.901C56.385 115.059 52.5794 117.652 48.4328 117.652C47.3339 117.652 45.9806 117.311 44.3458 116.635V113.084C45.1632 113.197 46.0943 113.278 47.139 113.278C49.0824 113.278 50.636 112.715 51.8216 111.671C53.229 110.372 53.9382 108.91 53.9382 107.302C53.9382 106.176 53.4022 103.919 52.2763 100.481L44.9737 77.7023H51.5455L56.791 94.7325C57.9765 98.6247 58.4853 101.304 58.258 102.852C61.1595 95.1818 63.1624 86.7804 64.2938 77.7023H70.622ZM159.6 107.161H140.6V67.2383H146.998V102.257H159.6V107.161ZM135.636 108.125L128.306 104.514C128.956 103.978 129.573 103.388 130.141 102.712C133.27 99.074 134.824 93.6336 134.824 86.4718C134.824 73.2471 129.638 66.6537 119.261 66.6537C114.183 66.6537 110.209 68.3156 107.362 71.6718C104.26 75.3366 102.68 80.7499 102.68 87.8847C102.68 94.9057 104.06 100.038 106.826 103.334C109.365 106.268 113.171 107.762 118.275 107.762C120.165 107.762 121.913 107.535 123.494 107.059L133.054 112.64L135.674 108.13L135.636 108.125ZM111.871 99.1552C110.237 96.5622 109.446 92.3885 109.446 86.6342C109.446 76.5709 112.494 71.5527 118.611 71.5527C121.799 71.5527 124.165 72.7653 125.659 75.1634C127.267 77.7835 128.084 81.903 128.084 87.5978C128.084 97.7207 125.009 102.825 118.919 102.825C115.704 102.825 113.365 101.613 111.844 99.2147L111.871 99.1552ZM99.9134 96.1129C99.9134 99.4962 98.6737 102.289 96.1619 104.428C93.6826 106.598 90.3805 107.697 86.1798 107.697C82.2606 107.697 78.5091 106.458 74.8173 103.973L76.5387 100.536C79.6947 102.116 82.5421 102.907 85.1404 102.907C87.5385 102.907 89.4278 102.371 90.7811 101.326C92.1344 100.254 92.9519 98.76 92.9519 96.8708C92.9519 94.4997 91.29 92.4697 88.2693 90.7808C85.4761 89.2326 79.8679 86.0442 79.8679 86.0442C76.8202 83.8193 75.3261 81.4483 75.3261 77.529C75.3261 74.2865 76.4521 71.6935 78.7094 69.7176C80.9939 67.6876 83.8954 66.7024 87.5061 66.7024C91.1979 66.7024 94.5813 67.6876 97.6289 69.6635L96.0807 73.1009C93.4878 72.002 90.9219 71.4391 88.4101 71.4391C86.353 71.4391 84.7723 71.9479 83.6734 72.9331C82.5745 73.9184 81.8979 75.158 81.8979 76.7116C81.8979 79.0826 83.5922 81.1126 86.6887 82.8557C89.5361 84.4039 95.2579 87.679 95.2579 87.679C98.3868 89.8768 99.9404 92.2478 99.9404 96.1075L99.9134 96.1129ZM167.612 53.8512C163.747 53.7646 160.759 54.1598 158.253 55.2316C157.549 55.5131 156.39 55.5131 156.277 56.4171C156.672 56.8123 156.726 57.4349 157.067 57.9654C157.657 58.9235 158.648 60.2227 159.579 60.8994C160.596 61.6897 161.609 62.48 162.654 63.1567C164.543 64.3152 166.659 64.9918 168.516 66.1449C169.561 66.8215 170.633 67.6931 171.672 68.4022C172.208 68.7703 172.544 69.4199 173.22 69.6418V69.5011C172.879 69.0789 172.798 68.4563 172.457 67.9529C171.975 67.4711 171.499 67.0489 171.017 66.5725C169.61 64.6833 167.888 63.0484 165.999 61.6951C164.451 60.6503 161.067 59.1833 160.445 57.4078L160.358 57.2941C161.403 57.2075 162.643 56.8123 163.655 56.5308C165.29 56.1086 166.811 56.1898 168.505 55.7676C169.269 55.5727 170.026 55.3453 170.817 55.0909V54.6687C169.945 53.7971 169.296 52.6116 168.392 51.7942C165.939 49.6776 163.233 47.5935 160.44 45.872C158.918 44.8868 157.002 44.2643 155.394 43.4469C154.831 43.1654 153.846 43.0246 153.532 42.5429C152.661 41.471 152.152 40.0906 151.529 38.8185C150.149 36.166 148.795 33.2374 147.583 30.4171C146.711 28.5278 146.203 26.6656 145.131 24.9171C140.167 16.7106 134.753 11.752 126.466 6.8746C124.69 5.8569 122.546 5.43466 120.289 4.89874C119.076 4.84461 117.891 4.758 116.678 4.70387C115.888 4.36283 115.13 3.46422 114.453 3.0095C111.693 1.261 104.585 -2.49041 102.582 2.47358C101.283 5.62954 104.498 8.70429 105.63 10.285C106.447 11.4109 107.492 12.656 108.082 13.8957C108.423 14.7401 108.504 15.6171 108.845 16.4886C109.609 18.6052 110.339 20.9708 111.357 22.9467C111.893 23.9644 112.456 25.0308 113.133 25.9348C113.528 26.4708 114.204 26.6981 114.345 27.5697C113.669 28.5549 113.614 29.9948 113.246 31.1803C111.498 36.6478 112.174 43.3873 114.627 47.4202C115.417 48.6328 117.247 51.2853 119.704 50.2676C121.875 49.3961 121.399 46.657 122.016 44.2318C122.157 43.6418 122.07 43.2736 122.357 42.8785V42.9922C123.061 44.3455 123.737 45.6447 124.36 46.998C125.827 49.369 128.447 51.8213 130.618 53.4561C131.776 54.3276 132.675 55.8271 134.115 56.3576V56.2169H134.001C133.692 55.7946 133.297 55.5943 132.902 55.2587C132.03 54.3872 131.067 53.3153 130.363 52.3572C128.36 49.6505 126.558 46.6624 124.977 43.5876C124.187 42.0665 123.51 40.4317 122.893 38.9376C122.611 38.3746 122.611 37.4977 122.13 37.2162C121.399 38.2609 120.327 39.1595 119.818 40.4858C118.887 42.5429 118.8 45.1088 118.438 47.7613C118.27 47.8154 118.351 47.7613 118.27 47.875C116.722 47.4798 116.186 45.8991 115.617 44.5458C114.15 41.1083 113.923 35.6084 115.168 31.6621C115.509 30.6444 116.944 27.4614 116.381 26.5032C116.072 25.5721 115.114 25.0362 114.605 24.3054C113.955 23.4014 113.306 22.2484 112.857 21.2307C111.698 18.524 111.135 15.5359 109.868 12.8292C109.305 11.5896 108.288 10.2904 107.47 9.13736C106.539 7.83817 105.527 6.91249 104.818 5.38594C104.563 4.85002 104.228 3.97848 104.623 3.41008C104.71 3.01491 104.904 2.87417 105.3 2.76049C105.922 2.22457 107.725 2.90124 108.347 3.20979C110.123 3.91352 111.617 4.59019 113.111 5.60789C113.788 6.08967 114.518 6.98828 115.395 7.2427H116.413C117.961 7.58374 119.683 7.32932 121.123 7.77862C123.689 8.59603 126 9.78154 128.084 11.0753C134.402 15.1082 139.587 20.803 143.112 27.5967C143.702 28.6956 143.956 29.7133 144.492 30.8664C145.477 33.2645 146.749 35.6571 147.762 37.9415C148.774 40.226 149.737 42.5374 151.199 44.4267C151.93 45.4444 154.81 45.9749 156.131 46.4837C157.089 46.933 158.583 47.3282 159.427 47.8371C161.089 48.8548 162.724 50.0078 164.278 51.1338C165.068 51.6697 167.466 52.8823 167.607 53.8404L167.612 53.8512Z" fill="#003ADF"/>
</svg>
