<svg width="158" height="163" viewBox="0 0 158 163" fill="none" xmlns="http://www.w3.org/2000/svg">
<path d="M123.694 48.3191C123.64 49.1582 123.25 49.8998 122.66 50.4141L122.655 50.4195C121.946 51.1936 120.998 51.7349 119.926 51.9244L119.899 51.9298C119.748 51.9515 119.569 51.9677 119.39 51.9677C119.385 51.9677 119.374 51.9677 119.369 51.9677C117.68 51.9677 116.229 50.9446 115.612 49.4776L115.601 49.4505C115.439 48.2542 117.388 47.3502 119.396 47.0687C121.404 46.7872 123.532 47.1282 123.694 48.3191ZM70.0482 51.1016C69.3932 52.7851 67.7854 53.9598 65.9016 53.9598C65.8799 53.9598 65.8637 53.9598 65.842 53.9598H65.8474C65.6526 53.9598 65.4685 53.9436 65.279 53.9219H65.3007C63.8878 53.6675 62.6861 52.888 61.8903 51.7999L61.8795 51.7837C61.4356 51.2748 61.1649 50.5982 61.1649 49.8674V49.8619C61.2299 49.4451 61.4627 49.0878 61.7875 48.8605L61.7929 48.8551C62.6157 48.4003 63.6009 48.1351 64.6511 48.1351C65.1004 48.1351 65.5389 48.1838 65.9611 48.2758L65.9232 48.2704C68.0615 48.5682 70.2701 49.5804 70.059 51.1016H70.0482ZM129.692 92.4755L129.113 91.7501L128.875 91.4524C131.348 86.8727 132.799 81.4215 132.799 75.6401C132.799 72.9984 132.496 70.4325 131.922 67.964L131.966 68.1914C131.587 65.7392 131.365 62.908 131.365 60.0281C131.365 59.9902 131.365 59.9523 131.365 59.9144C131.489 57.2024 131.776 54.669 132.22 52.1842L132.166 52.5415C132.648 50.0298 132.924 47.139 132.924 44.1834C132.924 43.9073 132.924 43.6366 132.918 43.366V43.4093C132.983 43.144 133.021 42.8463 133.021 42.5323C133.021 42.3862 133.01 42.2454 132.999 42.1047V42.1209C130.834 33.5679 126.769 26.1571 121.263 20.0725L121.301 20.1158C116.37 14.3344 110.307 9.67357 103.437 6.45807L103.113 6.32274C106.88 5.51616 111.211 5.05603 115.65 5.05603C116.056 5.05603 116.462 5.06144 116.868 5.06685H116.808C117.052 5.06144 117.333 5.05603 117.62 5.05603C130.493 5.05603 141.958 11.0594 149.375 20.419L149.44 20.5056C149.591 20.7005 149.743 20.9224 149.873 21.1552L149.889 21.1823C154.783 30.3524 148.021 63.6334 129.687 92.4863L129.692 92.4755ZM128.144 45.0333C128.057 47.4963 127.797 49.8295 127.386 52.1085L127.429 51.8107C127.007 54.1114 126.704 56.8505 126.579 59.633L126.574 59.7683C126.574 59.8603 126.574 59.9632 126.574 60.0714C126.574 63.1408 126.801 66.156 127.245 69.1008L127.202 68.7706C127.662 70.8114 127.927 73.15 127.927 75.5589C127.927 79.6892 127.148 83.641 125.724 87.2625L125.8 87.0459C125.388 86.3368 124.961 85.4815 124.587 84.5937L124.528 84.4367C124.17 83.576 123.396 82.1848 122.33 80.2685C118.167 72.7981 108.412 55.3077 113.403 48.173C115.969 44.5028 122.476 44.3458 128.138 45.0387L128.144 45.0333ZM124.295 107.746C124.019 102.122 126.114 101.532 128.333 100.909C128.64 100.826 128.945 100.734 129.248 100.633C129.519 100.872 129.816 101.104 130.125 101.31L130.152 101.326C133.508 102.804 137.417 103.659 141.531 103.659C144.736 103.659 147.816 103.14 150.696 102.176L150.49 102.236C148.628 103.822 146.506 105.18 144.21 106.231L144.043 106.301C140.556 107.73 136.513 108.623 132.28 108.759H132.225C131.581 108.856 130.84 108.916 130.087 108.916C127.998 108.916 126.005 108.483 124.203 107.703L124.3 107.741L124.295 107.746ZM118.27 118.714C118.156 119.91 118.026 121.258 117.853 122.747L116.868 125.713C116.792 125.93 116.749 126.179 116.743 126.439C116.749 126.585 116.749 126.753 116.749 126.92C116.749 128.842 116.462 130.704 115.931 132.453L115.964 132.317C115.336 134.423 114.903 136.865 114.757 139.382L114.751 139.468C114.47 148.584 107.416 155.963 98.468 156.758L98.3976 156.764C88.1448 158.962 86.326 153.402 84.7236 148.498C84.5612 147.985 84.388 147.475 84.204 146.966C83.3378 143.436 82.8398 139.382 82.8398 135.214C82.8398 133.265 82.9481 131.343 83.1592 129.448L83.1375 129.681C83.17 128.988 83.1863 128.171 83.1863 127.353C83.1863 121.799 82.3526 116.44 80.799 111.395L80.9018 111.779C80.9307 109.794 80.974 107.784 81.0318 105.749C81.0318 105.733 81.0318 105.706 81.0318 105.684C81.0318 105.435 80.9939 105.197 80.9235 104.969L80.9289 104.986C80.8531 104.444 80.7503 103.968 80.6149 103.508L80.6312 103.578C79.8679 100.758 77.9462 98.4842 75.4127 97.2771L75.3532 97.25C74.4005 96.7736 73.2745 96.4921 72.0782 96.4921C71.5152 96.4921 70.9684 96.5517 70.4433 96.6708L70.4921 96.6599C71.185 94.1157 71.8995 92.037 72.7223 90.0124L72.5816 90.4076L72.9389 89.4494C73.3394 88.3668 73.8429 87.2462 74.3788 86.0607C77.3345 79.9761 79.0613 72.8252 79.0613 65.2682C79.0613 60.1905 78.2818 55.2969 76.8364 50.6956L76.9285 51.0366C75.9378 45.0387 70.7844 40.5186 64.5807 40.5186C63.6063 40.5186 62.6536 40.6323 61.7441 40.8434L61.8308 40.8271C57.5218 41.3901 53.6242 42.6568 50.0785 44.519L50.2679 44.427C49.8204 44.6543 49.3784 44.8889 48.9417 45.1307C49.4343 33.5083 53.792 22.9903 60.7481 14.735L60.6831 14.8108C61.3219 14.1666 61.9932 13.5549 62.6861 12.9811L62.7348 12.9432C63.1083 12.8674 63.4385 12.7159 63.72 12.5047L63.7146 12.5101C68.5487 8.96984 74.617 6.84242 81.1833 6.84242C81.7084 6.84242 82.2281 6.85324 82.7424 6.88031L82.672 6.8749C85.5194 6.9182 88.2693 7.11308 90.976 7.45953L90.6133 7.42164C101.673 9.54907 111.113 15.3413 117.853 23.4613L117.913 23.537C121.962 28.2412 125.242 33.7519 127.472 39.7661L127.592 40.1396C126.2 39.7661 124.603 39.5496 122.958 39.5496C117.637 39.5496 112.846 41.8015 109.479 45.4014L109.468 45.4122C102.755 55.01 113.143 73.6426 118.135 82.5962C119.049 84.2364 119.84 85.6547 120.089 86.2556C121.496 89.509 123.266 92.3077 125.394 94.7924L125.356 94.7491C125.827 95.3391 126.282 95.9075 126.633 96.4055C123.921 97.185 119.049 98.9931 119.493 108.022C119.412 109.078 119.206 111.043 118.93 113.533C118.638 114.989 118.4 116.765 118.264 118.568L118.254 118.719L118.27 118.714ZM68.4566 87.7821L68.0994 88.7349C67.3577 90.5104 66.5891 92.7678 65.9503 95.0793L65.8474 95.5177C61.0134 95.4474 56.6719 93.3795 53.608 90.099L53.5971 90.0882C50.1759 86.4775 48.0756 81.5893 48.0756 76.2085C48.0756 75.1367 48.1568 74.0865 48.3192 73.0579L48.3029 73.1716C48.828 69.2741 49.1312 64.7756 49.1312 60.2013C49.1312 57.4839 49.0229 54.7935 48.8172 52.1301L48.8388 52.482C48.8064 51.9028 48.7739 51.3939 48.7576 50.9933C53.1153 47.6858 58.6315 45.6883 64.6132 45.6883C65.3278 45.6883 66.0315 45.7154 66.7298 45.7695L66.6378 45.7641C69.6367 46.4624 71.8941 48.9471 72.2514 52.0056L72.2568 52.0381C73.5452 55.979 74.2868 60.5153 74.2868 65.2195C74.2868 72.0727 72.7115 78.5579 69.9074 84.3393L70.0211 84.0794C69.4527 85.3407 68.9168 86.5317 68.4566 87.7713V87.7821ZM54.29 114.762C53.1803 114.481 52.2059 114.069 51.3181 113.533L51.3668 113.56C52.2979 113.165 53.3968 112.835 54.5336 112.624L54.6365 112.608C63.3194 110.821 64.6565 109.56 67.5851 105.841C68.2564 104.991 69.0142 104.022 70.0698 102.847C70.2863 102.604 70.4596 102.311 70.5624 101.987L70.5678 101.97C71.7209 100.947 72.4084 101.229 73.5235 101.689C74.7523 102.366 75.6618 103.508 76.0136 104.867L76.019 104.904C76.1435 105.256 76.2193 105.657 76.2193 106.079C76.2193 106.756 76.0299 107.389 75.7051 107.925L75.7159 107.909C72.2243 112.683 66.6432 115.753 60.3475 115.753C58.1822 115.753 56.0981 115.39 54.1547 114.719L54.29 114.762ZM13.6524 80.3497C10.1283 69.6043 7.25924 56.8559 5.56488 43.7341L5.4512 42.6568C5.12099 40.9138 4.93693 38.9054 4.93693 36.8592C4.93693 27.0828 9.20803 18.3078 15.9855 12.299L16.018 12.272C28.4415 3.48617 48.7576 8.61257 57.3377 11.3896L57.2728 11.4546C48.9633 21.5883 43.9236 34.6884 43.9236 48.9579C43.9236 49.4451 43.929 49.9323 43.9398 50.4195V50.3491C43.9398 50.9067 43.9831 51.6971 44.0481 52.7797C44.2267 54.9992 44.3295 57.5867 44.3295 60.2013C44.3295 64.5428 44.0481 68.8193 43.4959 73.0146L43.55 72.522C43.3714 73.6372 43.274 74.9255 43.274 76.2356C43.274 82.8993 45.8832 88.9568 50.1434 93.4336L50.1326 93.4228C50.6776 93.993 51.2459 94.5289 51.8378 95.0306C49.4938 97.5423 44.3945 103.096 38.9704 109.625C35.1323 114.242 32.4798 113.355 31.6083 113.068C27.9002 111.076 24.9932 107.985 23.2826 104.239L23.2339 104.119C19.5312 97.342 16.2724 89.4603 13.8689 81.2104L13.6578 80.3605L13.6524 80.3497ZM156.986 99.6048C156.883 99.2962 156.753 99.031 156.596 98.7874L156.607 98.8036C155.665 97.0226 153.381 96.4921 149.792 97.2338C138.608 99.5398 134.277 98.1215 132.707 97.1038C141.46 83.8304 148.503 68.4566 153.012 52.0327L153.278 50.9013C155.113 43.7936 158.675 27.0665 154.106 18.8924C153.787 18.2861 153.446 17.7665 153.067 17.2793L153.083 17.3009C144.622 6.71791 131.711 0 117.231 0C116.819 0 116.408 0.00541342 116.002 0.01624H116.061C115.834 0.0108267 115.569 0.0108265 115.298 0.0108265C108.033 0.0108265 101.045 1.20175 94.5217 3.39414L94.9818 3.25881C93.8234 3.04228 92.6595 2.85822 91.4903 2.70665C88.8486 2.20321 85.79 1.88924 82.6612 1.84052H82.6179C82.1686 1.81887 81.6435 1.80804 81.113 1.80804C73.9945 1.80804 67.374 3.94089 61.8578 7.60569L61.9877 7.52449C56.1901 5.35376 29.5945 -3.60526 13.1327 8.055C5.07227 14.9299 0 25.0907 0 36.4424C0 38.6348 0.189466 40.7838 0.552157 42.8734L0.519677 42.6514C2.33313 57.2565 5.27797 70.4 9.35419 83.0401L8.92654 81.5027C11.5953 90.7919 14.8974 98.8307 18.952 106.404L18.6218 105.733C20.9657 111.059 25.0203 115.282 30.0763 117.777L30.2171 117.842C31.1265 118.107 32.1713 118.264 33.2539 118.264C37.2706 118.264 40.7892 116.148 42.7597 112.965L42.7868 112.916C48.2055 106.398 53.543 100.563 55.9411 97.9862C58.6586 99.4965 61.8795 100.428 65.3115 100.536H65.344L65.3494 100.563C64.7792 101.241 64.2216 101.931 63.6767 102.631C61.3815 105.543 60.9051 106.144 53.5268 107.665C51.4264 108.098 45.8507 109.246 45.7695 113.154C45.7695 113.176 45.7695 113.198 45.7695 113.225C45.7695 114.02 46.0023 114.762 46.4028 115.385L46.392 115.368C48.081 117.507 50.4574 119.039 53.1803 119.634L53.2615 119.65C55.4214 120.354 57.9115 120.76 60.4883 120.76C66.4429 120.76 71.8887 118.605 76.1002 115.033L76.0678 115.06C75.9378 117.323 75.8675 119.975 75.8675 122.644C75.8675 132.133 76.7931 141.412 78.5525 150.387L78.4063 149.483C80.4742 156.915 87.1542 162.296 95.1009 162.367H95.1118C97.1093 162.35 99.0418 162.118 100.904 161.695L100.725 161.728C111.113 160.802 119.298 152.498 120.035 142.137L120.04 142.072C121.058 136.182 122.757 122.622 123.683 114.329C123.726 113.977 123.867 113.663 124.073 113.403L124.068 113.409C124.073 113.403 124.538 113.089 126.958 113.614L127.256 113.663L128.972 113.815L129.075 113.82C129.589 113.842 130.195 113.858 130.802 113.858C136.345 113.858 141.639 112.775 146.473 110.805L146.197 110.902C150.555 108.883 158.41 103.919 156.986 99.6048Z" fill="#003ADF"/>
</svg>
