<svg width="204" height="26" viewBox="0 0 204 26" fill="none" xmlns="http://www.w3.org/2000/svg">
<path d="M21.0766 0C15.4562 0 11.9434 2.81022 10.5383 8.43066C12.646 5.62044 15.1049 4.56661 17.9151 5.26916C19.5185 5.67001 20.6645 6.8332 21.933 8.12083C23.9995 10.2183 26.3911 12.646 31.615 12.646C37.2354 12.646 40.7482 9.83576 42.1533 4.21533C40.0456 7.02555 37.5867 8.07938 34.7764 7.37682C33.1731 6.97598 32.027 5.81278 30.7585 4.52515C28.6921 2.42764 26.3004 0 21.0766 0ZM10.5383 12.646C4.91788 12.646 1.40511 15.4562 0 21.0766C2.10766 18.2664 4.5666 17.2126 7.37682 17.9151C8.98021 18.316 10.1262 19.4792 11.3947 20.7668C13.4612 22.8643 15.8528 25.292 21.0766 25.292C26.6971 25.292 30.2098 22.4817 31.615 16.8613C29.5073 19.6715 27.0483 20.7254 24.2381 20.0228C22.6347 19.622 21.4887 18.4588 20.2202 17.1711C18.1538 15.0736 15.7621 12.646 10.5383 12.646Z" fill="#003ADF"/>
<path d="M63.2267 10.6571H59.5484V17.7763C59.5484 19.6748 60.7943 19.6451 63.2267 19.5265V22.4038C58.3025 22.9971 56.3448 21.6326 56.3448 17.7763V10.6571H53.6157V7.5721H56.3448V3.58783L59.5484 2.6386V7.5721H63.2267V10.6571ZM77.2481 7.5721H80.4517V22.4038H77.2481V20.268C76.1209 21.8402 74.3707 22.7894 72.057 22.7894C68.0228 22.7894 64.6708 19.3781 64.6708 14.9879C64.6708 10.5681 68.0228 7.18647 72.057 7.18647C74.3707 7.18647 76.1209 8.1357 77.2481 9.6782V7.5721ZM72.5613 19.7341C75.231 19.7341 77.2481 17.7466 77.2481 14.9879C77.2481 12.2293 75.231 10.2418 72.5613 10.2418C69.8916 10.2418 67.8745 12.2293 67.8745 14.9879C67.8745 17.7466 69.8916 19.7341 72.5613 19.7341ZM85.7912 5.34734C84.664 5.34734 83.7444 4.39811 83.7444 3.30057C83.7444 2.17336 84.664 1.25379 85.7912 1.25379C86.9184 1.25379 87.8379 2.17336 87.8379 3.30057C87.8379 4.39811 86.9184 5.34734 85.7912 5.34734ZM84.1893 22.4038V7.5721H87.393V22.4038H84.1893ZM91.1009 22.4038V0.749512H94.3046V22.4038H91.1009ZM115.099 7.5721H118.48L113.823 22.4038H110.679L107.594 12.4072L104.479 22.4038H101.335L96.6776 7.5721H100.059L102.937 17.806L106.051 7.5721H109.107L112.192 17.806L115.099 7.5721ZM122.455 5.34734C121.328 5.34734 120.408 4.39811 120.408 3.30057C120.408 2.17336 121.328 1.25379 122.455 1.25379C123.582 1.25379 124.502 2.17336 124.502 3.30057C124.502 4.39811 123.582 5.34734 122.455 5.34734ZM120.853 22.4038V7.5721H124.057V22.4038H120.853ZM135.566 7.18647C138.889 7.18647 141.262 9.44089 141.262 13.2971V22.4038H138.058V13.6234C138.058 11.369 136.753 10.1825 134.736 10.1825C132.63 10.1825 130.969 11.4283 130.969 14.454V22.4038H127.765V7.5721H130.969V9.47056C131.947 7.92806 133.549 7.18647 135.566 7.18647ZM156.449 1.63941H159.653V22.4038H156.449V20.268C155.322 21.8402 153.572 22.7894 151.258 22.7894C147.224 22.7894 143.872 19.3781 143.872 14.9879C143.872 10.5681 147.224 7.18647 151.258 7.18647C153.572 7.18647 155.322 8.1357 156.449 9.6782V1.63941ZM151.763 19.7341C154.432 19.7341 156.449 17.7466 156.449 14.9879C156.449 12.2293 154.432 10.2418 151.763 10.2418C149.093 10.2418 147.076 12.2293 147.076 14.9879C147.076 17.7466 149.093 19.7341 151.763 19.7341ZM170.391 22.7894C165.912 22.7894 162.56 19.3781 162.56 14.9879C162.56 10.5681 165.912 7.18647 170.391 7.18647C173.298 7.18647 175.82 8.69931 177.006 11.0131L174.247 12.6149C173.595 11.2207 172.141 10.3308 170.362 10.3308C167.751 10.3308 165.764 12.3182 165.764 14.9879C165.764 17.6577 167.751 19.6451 170.362 19.6451C172.141 19.6451 173.595 18.7255 174.307 17.361L177.065 18.9332C175.82 21.2766 173.298 22.7894 170.391 22.7894ZM182.346 11.6656C182.346 14.365 190.325 12.7335 190.325 18.2213C190.325 21.1876 187.744 22.7894 184.541 22.7894C181.574 22.7894 179.439 21.4546 178.489 19.3188L181.248 17.717C181.723 19.0518 182.909 19.8527 184.541 19.8527C185.965 19.8527 187.062 19.3781 187.062 18.1916C187.062 15.5516 179.083 17.0347 179.083 11.725C179.083 8.93661 181.485 7.18647 184.511 7.18647C186.943 7.18647 188.961 8.31368 189.999 10.2715L187.299 11.7843C186.765 10.6274 185.727 10.0935 184.511 10.0935C183.354 10.0935 182.346 10.5978 182.346 11.6656ZM196.02 11.6656C196.02 14.365 204 12.7335 204 18.2213C204 21.1876 201.419 22.7894 198.216 22.7894C195.249 22.7894 193.113 21.4546 192.164 19.3188L194.923 17.717C195.397 19.0518 196.584 19.8527 198.216 19.8527C199.639 19.8527 200.737 19.3781 200.737 18.1916C200.737 15.5516 192.757 17.0347 192.757 11.725C192.757 8.93661 195.16 7.18647 198.186 7.18647C200.618 7.18647 202.635 8.31368 203.674 10.2715L200.974 11.7843C200.44 10.6274 199.402 10.0935 198.186 10.0935C197.029 10.0935 196.02 10.5978 196.02 11.6656Z" fill="#003ADF"/>
</svg>
