<svg width="132" height="132" viewBox="0 0 132 132" fill="none" xmlns="http://www.w3.org/2000/svg">
<path fill-rule="evenodd" clip-rule="evenodd" d="M132 0H0V132H132V0ZM53.4767 114.4H42.4467V70.7907H26.6321V61.6968H69.2912V70.7907H53.4767V114.4ZM116.946 98.6946C116.946 109.14 108.838 115.752 95.6894 115.752C83.0887 115.752 75.1265 109.725 74.5061 100.375L74.4691 99.7902H85.0978L85.1338 100.155C85.536 104.1 89.8093 106.767 95.9816 106.767C101.862 106.767 105.916 103.954 105.916 99.9002V99.8633C105.916 96.3943 103.323 94.4583 96.785 93.1066L91.2331 91.975C80.2762 89.7468 75.5647 84.6331 75.5647 76.6348V76.5978C75.5647 66.8096 83.9652 60.3451 95.6525 60.3451C107.961 60.3451 115.193 66.8466 115.886 75.6483L115.923 76.1235H105.551L105.478 75.6853C104.856 71.9233 101.204 69.2938 95.6525 69.2938C90.2106 69.3299 86.5946 71.8133 86.5946 75.7583V75.7944C86.5946 79.2282 89.1519 81.2733 95.3603 82.5519L100.948 83.6836C112.088 85.9848 116.946 90.4402 116.946 98.6586V98.6946Z" fill="#003ADF"/>
</svg>
