<svg width="52" height="55" viewBox="0 0 52 55" fill="none" xmlns="http://www.w3.org/2000/svg">
<path d="M52 0V42.5455H44.9091V40.1818H49.6364V2.36364H2.36364V40.1818H21.2727V42.5455H0V0H52ZM35.4545 4.72727H16.5455V7.09091H35.4545V4.72727ZM30.7273 11.8182V9.45455H21.2727V11.8182H30.7273ZM14.1818 23.6364H4.72727V26H14.1818V23.6364ZM14.1818 28.3636H4.72727V30.7273H14.1818V28.3636ZM4.72727 35.4545H9.45455V33.0909H4.72727V35.4545ZM37.8182 28.3636C37.8182 29.2986 37.5409 30.2126 37.0215 30.99C36.5021 31.7674 35.7638 32.3733 34.9 32.7311C34.0362 33.0889 33.0857 33.1825 32.1687 33.0001C31.2517 32.8177 30.4093 32.3674 29.7482 31.7063C29.0871 31.0452 28.6369 30.2029 28.4545 29.2859C28.2721 28.3689 28.3657 27.4184 28.7235 26.5546C29.0813 25.6908 29.6872 24.9525 30.4646 24.4331C31.242 23.9136 32.1559 23.6364 33.0909 23.6364C34.3443 23.6376 35.5459 24.1361 36.4322 25.0223C37.3185 25.9086 37.8169 27.1103 37.8182 28.3636ZM35.4545 28.3636C35.4545 27.8962 35.3159 27.4392 35.0562 27.0505C34.7965 26.6618 34.4273 26.3588 33.9954 26.1799C33.5635 26.001 33.0883 25.9542 32.6298 26.0454C32.1713 26.1366 31.7501 26.3617 31.4196 26.6923C31.089 27.0229 30.8639 27.444 30.7727 27.9025C30.6815 28.361 30.7283 28.8363 30.9072 29.2682C31.0861 29.7001 31.389 30.0692 31.7777 30.3289C32.1664 30.5886 32.6234 30.7273 33.0909 30.7273C33.7176 30.7266 34.3184 30.4774 34.7616 30.0343C35.2047 29.5912 35.4539 28.9903 35.4545 28.3636ZM35.4593 18.2165C35.5659 18.5165 35.7342 18.7909 35.9532 19.0219C36.1723 19.2529 36.4373 19.4356 36.7312 19.558C37.025 19.6805 37.3413 19.74 37.6596 19.7329C37.9779 19.7258 38.2912 19.6521 38.5793 19.5165C39.0502 19.2965 39.577 19.2255 40.0893 19.3129C40.6017 19.4003 41.0751 19.6421 41.4464 20.0058C41.8139 20.3732 42.0589 20.8452 42.1478 21.3572C42.2366 21.8692 42.165 22.3961 41.9427 22.8658C41.8059 23.1541 41.731 23.4679 41.7229 23.787C41.7148 24.106 41.7737 24.4232 41.8957 24.718C42.0178 25.0129 42.2003 25.2789 42.4315 25.4989C42.6627 25.7189 42.9374 25.888 43.238 25.9953C43.7265 26.1697 44.149 26.491 44.4478 26.915C44.7466 27.339 44.907 27.8449 44.907 28.3636C44.907 28.8823 44.7466 29.3883 44.4478 29.8123C44.149 30.2363 43.7265 30.5575 43.238 30.732C42.9373 30.8388 42.6624 31.0074 42.4309 31.2271C42.1995 31.4467 42.0167 31.7125 41.8944 32.0072C41.7721 32.302 41.713 32.6191 41.7209 32.938C41.7288 33.257 41.8036 33.5708 41.9404 33.8591C42.1072 34.2013 42.1931 34.5774 42.1914 34.9582C42.1896 35.3389 42.1003 35.7142 41.9303 36.0549C41.7603 36.3956 41.5142 36.6926 41.211 36.923C40.9078 37.1533 40.5556 37.3108 40.1818 37.3833V54.0375L33.0909 48.0385L26 54.0375V37.3833C25.6265 37.3107 25.2747 37.1533 24.9717 36.9231C24.6688 36.6929 24.4228 36.3961 24.2529 36.0557C24.0829 35.7153 23.9935 35.3404 23.9915 34.9599C23.9895 34.5794 24.075 34.2036 24.2415 33.8615C24.3786 33.5731 24.4537 33.2591 24.4618 32.9398C24.4699 32.6205 24.4109 32.3031 24.2886 32.0081C24.1663 31.7131 23.9834 31.4471 23.7517 31.2273C23.5201 31.0074 23.2448 30.8387 22.9438 30.732C22.4554 30.5575 22.0328 30.2363 21.734 29.8123C21.4352 29.3883 21.2749 28.8823 21.2749 28.3636C21.2749 27.8449 21.4352 27.339 21.734 26.915C22.0328 26.491 22.4554 26.1697 22.9438 25.9953C23.2446 25.8882 23.5196 25.7193 23.751 25.4995C23.9825 25.2796 24.1652 25.0136 24.2875 24.7187C24.4098 24.4238 24.4689 24.1065 24.461 23.7874C24.453 23.4682 24.3782 23.1543 24.2415 22.8658C24.0189 22.3963 23.9469 21.8695 24.0353 21.3575C24.1237 20.8456 24.3683 20.3734 24.7355 20.0058C25.1068 19.643 25.5799 19.402 26.0918 19.315C26.6036 19.228 27.1298 19.2991 27.6002 19.5189C27.8884 19.6544 28.2018 19.728 28.5203 19.735C28.8387 19.7419 29.155 19.6822 29.4489 19.5595C29.7428 19.4368 30.0078 19.2539 30.2268 19.0226C30.4457 18.7913 30.6138 18.5167 30.7202 18.2165C30.8942 17.7273 31.2153 17.3039 31.6396 17.0044C32.0639 16.705 32.5704 16.5443 33.0897 16.5443C33.609 16.5443 34.1156 16.705 34.5398 17.0044C34.9641 17.3039 35.2853 17.7273 35.4593 18.2165ZM37.8182 48.9438V37.0311C37.3149 36.9673 36.8051 37.0796 36.3751 37.3488C35.9452 37.6181 35.6216 38.0277 35.4593 38.5084C35.2848 38.9968 34.9636 39.4194 34.5396 39.7182C34.1156 40.017 33.6096 40.1773 33.0909 40.1773C32.5722 40.1773 32.0662 40.017 31.6422 39.7182C31.2183 39.4194 30.897 38.9968 30.7225 38.5084C30.5602 38.0277 30.2366 37.6181 29.8067 37.3488C29.3767 37.0796 28.8669 36.9673 28.3636 37.0311V48.9415L33.0909 44.9422L37.8182 48.9438ZM33.2327 37.7189C33.5543 36.8145 34.148 36.0318 34.9322 35.4782C35.7163 34.9247 36.6527 34.6274 37.6125 34.6273C38.3233 34.6349 39.0242 34.7936 39.6689 35.0929L39.806 34.8778C39.5266 34.291 39.3736 33.6521 39.3568 33.0024C39.34 32.3527 39.4598 31.7067 39.7084 31.1062C39.9571 30.5058 40.329 29.9642 40.8002 29.5166C41.2714 29.069 41.8314 28.7253 42.4438 28.5078V28.2195C41.8318 28.0013 41.2724 27.6573 40.8016 27.2096C40.3308 26.7619 39.9591 26.2204 39.7106 25.6201C39.462 25.0199 39.3421 24.3742 39.3585 23.7247C39.3749 23.0752 39.5274 22.4364 39.806 21.8495L39.6004 21.6509C39.0135 21.9295 38.3747 22.0818 37.7252 22.098C37.0758 22.1143 36.4302 21.9941 35.8301 21.7453C35.2299 21.4965 34.6887 21.1246 34.2413 20.6535C33.7939 20.1825 33.4503 19.6228 33.2327 19.0107H32.9491C32.7315 19.6228 32.3879 20.1825 31.9405 20.6535C31.4931 21.1246 30.9519 21.4965 30.3518 21.7453C29.7517 21.9941 29.106 22.1143 28.4566 22.098C27.8072 22.0818 27.1684 21.9295 26.5815 21.6509L26.3758 21.8495C26.6544 22.4364 26.8069 23.0752 26.8233 23.7247C26.8398 24.3742 26.7198 25.0199 26.4713 25.6201C26.2227 26.2204 25.851 26.7619 25.3802 27.2096C24.9094 27.6573 24.35 28.0013 23.738 28.2195V28.5078C24.3504 28.7253 24.9104 29.069 25.3816 29.5166C25.8528 29.9642 26.2248 30.5058 26.4734 31.1062C26.7221 31.7067 26.8419 32.3527 26.825 33.0024C26.8082 33.6521 26.6552 34.291 26.3758 34.8778L26.5129 35.0905C27.1578 34.7921 27.8587 34.6341 28.5693 34.6273C29.5292 34.6274 30.4655 34.9247 31.2497 35.4782C32.0339 36.0318 32.6275 36.8145 32.9491 37.7189L33.0909 37.8182L33.2327 37.7189Z" fill="#003ADF" />
</svg>
