<svg width="102" height="146" viewBox="0 0 102 146" fill="none" xmlns="http://www.w3.org/2000/svg">
<path d="M51.3064 8H29.6532C17.6945 8 8 17.6945 8 29.6532C8 41.6119 17.6945 51.3064 29.6532 51.3064M51.3064 8V51.3064M51.3064 8H72.9596C84.9187 8 94.6129 17.6945 94.6129 29.6532C94.6129 41.6119 84.9187 51.3064 72.9596 51.3064M29.6532 51.3064H51.3064M29.6532 51.3064C17.6945 51.3064 8 61.0006 8 72.9596C8 84.9187 17.6945 94.6129 29.6532 94.6129M51.3064 51.3064H72.9596M51.3064 51.3064V94.6129M72.9596 51.3064C84.9187 51.3064 94.6129 61.0006 94.6129 72.9596C94.6129 84.9187 84.9187 94.6129 72.9596 94.6129C61.0006 94.6129 51.3064 84.9187 51.3064 72.9596C51.3064 61.0006 61.0006 51.3064 72.9596 51.3064ZM51.3064 94.6129H29.6532M51.3064 94.6129V116.266C51.3064 128.225 41.6123 137.919 29.6532 137.919C17.6945 137.919 8 128.225 8 116.266C8 104.307 17.6945 94.6129 29.6532 94.6129" stroke="#003ADF" stroke-width="14.4355" stroke-linecap="round" stroke-linejoin="round"/>
</svg>
