<svg width="372" height="270" viewBox="0 0 372 270" fill="none" xmlns="http://www.w3.org/2000/svg">
<g clip-path="url(#clip0_27_321)">
<path d="M216.243 47.598C223.201 47.598 228.841 41.9578 228.841 35.0002C228.841 28.0426 223.201 22.4023 216.243 22.4023C209.285 22.4023 203.645 28.0426 203.645 35.0002C203.645 41.9578 209.285 47.598 216.243 47.598Z" fill="#F2F2F2"/>
<path d="M313.969 234.564C332.694 220.301 341.638 196.335 336.038 173.472C335.899 172.904 335.752 172.337 335.598 171.772C331.886 158.201 322.702 145.303 309.318 140.966C298.079 137.325 285.812 140.125 274.088 138.677C251.072 135.835 233.228 117.213 220.673 97.7146C208.118 78.2166 198.468 56.3914 181.785 40.2833C154.285 13.7317 109.427 8.01511 75.331 25.2982C41.2354 42.5813 19.5168 80.9254 20.4431 119.14C21.3693 157.355 44.0557 193.891 77.0019 213.275C89.105 220.396 103.103 225.441 117.035 223.676C129.123 222.144 140.106 215.649 152.137 213.721C171.053 210.689 189.848 219.241 206.208 229.207C222.569 239.174 238.372 250.986 256.964 255.607C275.016 260.093 297.381 247.198 313.969 234.564Z" fill="#F2F2F2"/>
<path d="M287.065 26.1008C286.654 25.8272 286.239 25.5677 285.829 25.3035C273.963 17.7147 261.245 11.5496 247.937 6.93568L244.851 49.5029H225.29V0.721877C224.058 0.467097 222.818 0.226471 221.577 0V49.5029H198.33C185.533 49.5029 173.26 44.4191 164.211 35.37C155.162 26.3209 150.078 14.0477 150.078 1.25037C148.832 1.5193 147.596 1.80707 146.36 2.11375V49.5029H127.426L124.487 8.9126C110.811 14.1574 97.8276 21.0547 85.826 29.4507C85.6184 29.5923 85.4108 29.7385 85.2079 29.8801C84.1652 30.6114 83.1366 31.3569 82.1128 32.1118V194.506H137.914L136.928 180.847L131.502 105.852H240.77L235.344 180.847L234.358 194.506H289.542V27.7428C288.721 27.186 287.895 26.6387 287.065 26.1008ZM146.36 93.4666H130.606L127.695 53.2208H146.36V93.4666ZM221.577 93.4666H195.117V92.6693C195.117 92.2859 195.042 91.9064 194.895 91.5523C194.748 91.1982 194.533 90.8766 194.262 90.6058C193.99 90.3349 193.668 90.1203 193.314 89.974C192.96 89.8278 192.58 89.7528 192.197 89.7534H180.694C180.311 89.7533 179.932 89.8286 179.578 89.9751C179.224 90.1216 178.903 90.3363 178.632 90.6071C178.361 90.8779 178.146 91.1994 178 91.5532C177.853 91.9071 177.778 92.2863 177.778 92.6693V93.4666H150.078V53.2208H221.577V93.4666ZM225.29 93.4666V53.2208H244.582L241.671 93.4666H225.29Z" fill="#3F3D56"/>
<path d="M0 204.905C4.09878 209.762 8.53207 214.326 13.2675 218.564L357.966 219.036C362.702 214.798 367.135 210.233 371.234 205.377L0 204.905Z" fill="#3F3D56"/>
<path d="M233.751 161.168V201.605C233.752 202.12 233.957 202.614 234.321 202.978C234.685 203.343 235.179 203.548 235.695 203.548H295.617C296.133 203.548 296.627 203.343 296.991 202.978C297.355 202.614 297.56 202.12 297.561 201.605V161.168C297.56 160.653 297.354 160.16 296.99 159.796C296.626 159.432 296.132 159.227 295.617 159.227H235.695C235.18 159.227 234.686 159.432 234.322 159.796C233.958 160.16 233.752 160.653 233.751 161.168Z" fill="#3F3D56"/>
<path d="M235.157 161.671V201.106C235.158 201.381 235.267 201.645 235.462 201.84C235.657 202.034 235.921 202.144 236.196 202.144H295.119C295.394 202.144 295.658 202.034 295.853 201.84C296.047 201.645 296.157 201.381 296.157 201.106V161.671C296.157 161.396 296.048 161.131 295.853 160.936C295.659 160.741 295.394 160.631 295.119 160.63H236.196C235.92 160.631 235.656 160.741 235.461 160.936C235.267 161.131 235.157 161.396 235.157 161.671Z" fill="#003ADF"/>
<path d="M232.498 209.49C232.608 209.628 232.747 209.739 232.906 209.815C233.065 209.891 233.239 209.93 233.415 209.929H297.578C297.754 209.929 297.927 209.89 298.085 209.814C298.244 209.738 298.383 209.629 298.494 209.492C298.604 209.356 298.683 209.197 298.724 209.026C298.766 208.856 298.768 208.678 298.732 208.506L297.736 203.775C297.695 203.582 297.606 203.403 297.478 203.253C297.349 203.103 297.185 202.988 297.001 202.918C296.868 202.865 296.726 202.838 296.582 202.839H234.407C234.264 202.838 234.122 202.865 233.988 202.918C233.804 202.988 233.64 203.103 233.512 203.253C233.383 203.403 233.294 203.582 233.253 203.775L232.257 208.506C232.222 208.678 232.225 208.855 232.267 209.026C232.308 209.196 232.387 209.355 232.498 209.49Z" fill="#2F2E41"/>
<path d="M294.381 204.877H295.896C296.024 204.877 296.127 204.774 296.127 204.646V203.921C296.127 203.794 296.024 203.691 295.896 203.691H294.381C294.254 203.691 294.151 203.794 294.151 203.921V204.646C294.151 204.774 294.254 204.877 294.381 204.877Z" fill="#3F3D56"/>
<path d="M290.428 204.877H291.944C292.071 204.877 292.174 204.774 292.174 204.646V203.921C292.174 203.794 292.071 203.691 291.944 203.691H290.428C290.301 203.691 290.198 203.794 290.198 203.921V204.646C290.198 204.774 290.301 204.877 290.428 204.877Z" fill="#3F3D56"/>
<path d="M286.476 204.877H287.991C288.119 204.877 288.222 204.774 288.222 204.646V203.921C288.222 203.794 288.119 203.691 287.991 203.691H286.476C286.349 203.691 286.245 203.794 286.245 203.921V204.646C286.245 204.774 286.349 204.877 286.476 204.877Z" fill="#3F3D56"/>
<path d="M282.524 204.877H284.039C284.166 204.877 284.27 204.774 284.27 204.646V203.921C284.27 203.794 284.166 203.691 284.039 203.691H282.524C282.396 203.691 282.293 203.794 282.293 203.921V204.646C282.293 204.774 282.396 204.877 282.524 204.877Z" fill="#3F3D56"/>
<path d="M278.571 204.877H280.087C280.214 204.877 280.317 204.774 280.317 204.646V203.921C280.317 203.794 280.214 203.691 280.087 203.691H278.571C278.444 203.691 278.341 203.794 278.341 203.921V204.646C278.341 204.774 278.444 204.877 278.571 204.877Z" fill="#3F3D56"/>
<path d="M274.619 204.877H276.134C276.261 204.877 276.365 204.774 276.365 204.646V203.921C276.365 203.794 276.261 203.691 276.134 203.691H274.619C274.491 203.691 274.388 203.794 274.388 203.921V204.646C274.388 204.774 274.491 204.877 274.619 204.877Z" fill="#3F3D56"/>
<path d="M270.666 204.877H272.182C272.309 204.877 272.412 204.774 272.412 204.646V203.921C272.412 203.794 272.309 203.691 272.182 203.691H270.666C270.539 203.691 270.436 203.794 270.436 203.921V204.646C270.436 204.774 270.539 204.877 270.666 204.877Z" fill="#3F3D56"/>
<path d="M266.714 204.877H268.229C268.357 204.877 268.46 204.774 268.46 204.646V203.921C268.46 203.794 268.357 203.691 268.229 203.691H266.714C266.587 203.691 266.484 203.794 266.484 203.921V204.646C266.484 204.774 266.587 204.877 266.714 204.877Z" fill="#3F3D56"/>
<path d="M262.761 204.877H264.277C264.404 204.877 264.507 204.774 264.507 204.646V203.921C264.507 203.794 264.404 203.691 264.277 203.691H262.761C262.634 203.691 262.531 203.794 262.531 203.921V204.646C262.531 204.774 262.634 204.877 262.761 204.877Z" fill="#3F3D56"/>
<path d="M258.809 204.877H260.325C260.452 204.877 260.555 204.774 260.555 204.646V203.921C260.555 203.794 260.452 203.691 260.325 203.691H258.809C258.682 203.691 258.579 203.794 258.579 203.921V204.646C258.579 204.774 258.682 204.877 258.809 204.877Z" fill="#3F3D56"/>
<path d="M254.857 204.877H256.372C256.499 204.877 256.603 204.774 256.603 204.646V203.921C256.603 203.794 256.499 203.691 256.372 203.691H254.857C254.729 203.691 254.626 203.794 254.626 203.921V204.646C254.626 204.774 254.729 204.877 254.857 204.877Z" fill="#3F3D56"/>
<path d="M250.905 204.877H252.42C252.547 204.877 252.65 204.774 252.65 204.646V203.921C252.65 203.794 252.547 203.691 252.42 203.691H250.905C250.777 203.691 250.674 203.794 250.674 203.921V204.646C250.674 204.774 250.777 204.877 250.905 204.877Z" fill="#3F3D56"/>
<path d="M246.952 204.877H248.467C248.595 204.877 248.698 204.774 248.698 204.646V203.921C248.698 203.794 248.595 203.691 248.467 203.691H246.952C246.825 203.691 246.722 203.794 246.722 203.921V204.646C246.722 204.774 246.825 204.877 246.952 204.877Z" fill="#3F3D56"/>
<path d="M243 204.877H244.515C244.642 204.877 244.746 204.774 244.746 204.646V203.921C244.746 203.794 244.642 203.691 244.515 203.691H243C242.873 203.691 242.769 203.794 242.769 203.921V204.646C242.769 204.774 242.873 204.877 243 204.877Z" fill="#3F3D56"/>
<path d="M239.047 204.877H240.563C240.69 204.877 240.793 204.774 240.793 204.646V203.921C240.793 203.794 240.69 203.691 240.563 203.691H239.047C238.92 203.691 238.817 203.794 238.817 203.921V204.646C238.817 204.774 238.92 204.877 239.047 204.877Z" fill="#3F3D56"/>
<path d="M235.095 204.877H236.61C236.737 204.877 236.841 204.774 236.841 204.646V203.921C236.841 203.794 236.737 203.691 236.61 203.691H235.095C234.968 203.691 234.864 203.794 234.864 203.921V204.646C234.864 204.774 234.968 204.877 235.095 204.877Z" fill="#3F3D56"/>
<path d="M294.427 206.853H295.943C296.07 206.853 296.173 206.75 296.173 206.622V205.897C296.173 205.77 296.07 205.667 295.943 205.667H294.427C294.3 205.667 294.197 205.77 294.197 205.897V206.622C294.197 206.75 294.3 206.853 294.427 206.853Z" fill="#3F3D56"/>
<path d="M290.475 206.853H291.991C292.118 206.853 292.221 206.75 292.221 206.622V205.897C292.221 205.77 292.118 205.667 291.991 205.667H290.475C290.348 205.667 290.245 205.77 290.245 205.897V206.622C290.245 206.75 290.348 206.853 290.475 206.853Z" fill="#3F3D56"/>
<path d="M286.522 206.853H288.038C288.165 206.853 288.268 206.75 288.268 206.622V205.897C288.268 205.77 288.165 205.667 288.038 205.667H286.522C286.395 205.667 286.292 205.77 286.292 205.897V206.622C286.292 206.75 286.395 206.853 286.522 206.853Z" fill="#3F3D56"/>
<path d="M282.57 206.853H284.086C284.213 206.853 284.316 206.75 284.316 206.622V205.897C284.316 205.77 284.213 205.667 284.086 205.667H282.57C282.443 205.667 282.34 205.77 282.34 205.897V206.622C282.34 206.75 282.443 206.853 282.57 206.853Z" fill="#3F3D56"/>
<path d="M278.618 206.853H280.133C280.26 206.853 280.364 206.75 280.364 206.622V205.897C280.364 205.77 280.26 205.667 280.133 205.667H278.618C278.49 205.667 278.387 205.77 278.387 205.897V206.622C278.387 206.75 278.49 206.853 278.618 206.853Z" fill="#3F3D56"/>
<path d="M274.665 206.853H276.181C276.308 206.853 276.411 206.75 276.411 206.622V205.897C276.411 205.77 276.308 205.667 276.181 205.667H274.665C274.538 205.667 274.435 205.77 274.435 205.897V206.622C274.435 206.75 274.538 206.853 274.665 206.853Z" fill="#3F3D56"/>
<path d="M270.713 206.853H272.228C272.356 206.853 272.459 206.75 272.459 206.622V205.897C272.459 205.77 272.356 205.667 272.228 205.667H270.713C270.586 205.667 270.483 205.77 270.483 205.897V206.622C270.483 206.75 270.586 206.853 270.713 206.853Z" fill="#3F3D56"/>
<path d="M266.76 206.853H268.276C268.403 206.853 268.506 206.75 268.506 206.622V205.897C268.506 205.77 268.403 205.667 268.276 205.667H266.76C266.633 205.667 266.53 205.77 266.53 205.897V206.622C266.53 206.75 266.633 206.853 266.76 206.853Z" fill="#3F3D56"/>
<path d="M262.808 206.853H264.324C264.451 206.853 264.554 206.75 264.554 206.622V205.897C264.554 205.77 264.451 205.667 264.324 205.667H262.808C262.681 205.667 262.578 205.77 262.578 205.897V206.622C262.578 206.75 262.681 206.853 262.808 206.853Z" fill="#3F3D56"/>
<path d="M258.856 206.853H260.371C260.498 206.853 260.602 206.75 260.602 206.622V205.897C260.602 205.77 260.498 205.667 260.371 205.667H258.856C258.728 205.667 258.625 205.77 258.625 205.897V206.622C258.625 206.75 258.728 206.853 258.856 206.853Z" fill="#3F3D56"/>
<path d="M254.904 206.853H256.419C256.546 206.853 256.649 206.75 256.649 206.622V205.897C256.649 205.77 256.546 205.667 256.419 205.667H254.904C254.776 205.667 254.673 205.77 254.673 205.897V206.622C254.673 206.75 254.776 206.853 254.904 206.853Z" fill="#3F3D56"/>
<path d="M250.951 206.853H252.467C252.594 206.853 252.697 206.75 252.697 206.622V205.897C252.697 205.77 252.594 205.667 252.467 205.667H250.951C250.824 205.667 250.721 205.77 250.721 205.897V206.622C250.721 206.75 250.824 206.853 250.951 206.853Z" fill="#3F3D56"/>
<path d="M246.999 206.853H248.514C248.642 206.853 248.745 206.75 248.745 206.622V205.897C248.745 205.77 248.642 205.667 248.514 205.667H246.999C246.872 205.667 246.768 205.77 246.768 205.897V206.622C246.768 206.75 246.872 206.853 246.999 206.853Z" fill="#3F3D56"/>
<path d="M243.046 206.853H244.562C244.689 206.853 244.792 206.75 244.792 206.622V205.897C244.792 205.77 244.689 205.667 244.562 205.667H243.046C242.919 205.667 242.816 205.77 242.816 205.897V206.622C242.816 206.75 242.919 206.853 243.046 206.853Z" fill="#3F3D56"/>
<path d="M239.094 206.853H240.61C240.737 206.853 240.84 206.75 240.84 206.622V205.897C240.84 205.77 240.737 205.667 240.61 205.667H239.094C238.967 205.667 238.864 205.77 238.864 205.897V206.622C238.864 206.75 238.967 206.853 239.094 206.853Z" fill="#3F3D56"/>
<path d="M235.142 206.853H236.657C236.784 206.853 236.887 206.75 236.887 206.622V205.897C236.887 205.77 236.784 205.667 236.657 205.667H235.142C235.014 205.667 234.911 205.77 234.911 205.897V206.622C234.911 206.75 235.014 206.853 235.142 206.853Z" fill="#3F3D56"/>
<path d="M261.622 209.224H276.971C277.099 209.224 277.202 209.121 277.202 208.994V208.269C277.202 208.142 277.099 208.039 276.971 208.039H261.622C261.495 208.039 261.392 208.142 261.392 208.269V208.994C261.392 209.121 261.495 209.224 261.622 209.224Z" fill="#3F3D56"/>
<path d="M245.361 169.258H244.019C243.612 169.258 243.283 169.587 243.283 169.994C243.283 170.401 243.612 170.731 244.019 170.731H245.361C245.768 170.731 246.098 170.401 246.098 169.994C246.098 169.587 245.768 169.258 245.361 169.258Z" fill="white"/>
<path d="M260.706 169.258H259.364C258.957 169.258 258.628 169.587 258.628 169.994C258.628 170.401 258.957 170.731 259.364 170.731H260.706C261.113 170.731 261.442 170.401 261.442 169.994C261.442 169.587 261.113 169.258 260.706 169.258Z" fill="white"/>
<path d="M265.054 169.258H263.712C263.305 169.258 262.975 169.587 262.975 169.994C262.975 170.401 263.305 170.731 263.712 170.731H265.054C265.46 170.731 265.79 170.401 265.79 169.994C265.79 169.587 265.46 169.258 265.054 169.258Z" fill="white"/>
<path d="M256.532 169.135H248.193C247.787 169.135 247.457 169.465 247.457 169.871C247.457 170.278 247.787 170.608 248.193 170.608H256.532C256.939 170.608 257.269 170.278 257.269 169.871C257.269 169.465 256.939 169.135 256.532 169.135Z" fill="white"/>
<path d="M276.992 169.135H268.653C268.246 169.135 267.916 169.465 267.916 169.871C267.916 170.278 268.246 170.608 268.653 170.608H276.992C277.398 170.608 277.728 170.278 277.728 169.871C277.728 169.465 277.398 169.135 276.992 169.135Z" fill="white"/>
<path d="M249.453 172.582H248.111C247.704 172.582 247.375 172.912 247.375 173.319C247.375 173.726 247.704 174.055 248.111 174.055H249.453C249.86 174.055 250.189 173.726 250.189 173.319C250.189 172.912 249.86 172.582 249.453 172.582Z" fill="white"/>
<path d="M264.798 172.582H263.456C263.049 172.582 262.72 172.912 262.72 173.319C262.72 173.726 263.049 174.055 263.456 174.055H264.798C265.205 174.055 265.535 173.726 265.535 173.319C265.535 172.912 265.205 172.582 264.798 172.582Z" fill="white"/>
<path d="M269.145 172.582H267.804C267.397 172.582 267.067 172.912 267.067 173.319C267.067 173.726 267.397 174.055 267.804 174.055H269.145C269.552 174.055 269.882 173.726 269.882 173.319C269.882 172.912 269.552 172.582 269.145 172.582Z" fill="white"/>
<path d="M260.624 172.46H252.285C251.878 172.46 251.549 172.789 251.549 173.196C251.549 173.603 251.878 173.933 252.285 173.933H260.624C261.031 173.933 261.361 173.603 261.361 173.196C261.361 172.789 261.031 172.46 260.624 172.46Z" fill="white"/>
<path d="M281.084 172.46H272.745C272.338 172.46 272.008 172.789 272.008 173.196C272.008 173.603 272.338 173.933 272.745 173.933H281.084C281.49 173.933 281.82 173.603 281.82 173.196C281.82 172.789 281.49 172.46 281.084 172.46Z" fill="white"/>
<path d="M253.545 175.907H252.203C251.796 175.907 251.467 176.237 251.467 176.644C251.467 177.051 251.796 177.38 252.203 177.38H253.545C253.952 177.38 254.281 177.051 254.281 176.644C254.281 176.237 253.952 175.907 253.545 175.907Z" fill="white"/>
<path d="M268.89 175.907H267.548C267.141 175.907 266.812 176.237 266.812 176.644C266.812 177.051 267.141 177.38 267.548 177.38H268.89C269.297 177.38 269.626 177.051 269.626 176.644C269.626 176.237 269.297 175.907 268.89 175.907Z" fill="white"/>
<path d="M273.237 175.907H271.896C271.489 175.907 271.159 176.237 271.159 176.644C271.159 177.051 271.489 177.38 271.896 177.38H273.237C273.644 177.38 273.974 177.051 273.974 176.644C273.974 176.237 273.644 175.907 273.237 175.907Z" fill="white"/>
<path d="M264.716 175.784H256.377C255.97 175.784 255.64 176.114 255.64 176.521C255.64 176.928 255.97 177.257 256.377 177.257H264.716C265.123 177.257 265.452 176.928 265.452 176.521C265.452 176.114 265.123 175.784 264.716 175.784Z" fill="white"/>
<path d="M285.176 175.784H276.837C276.43 175.784 276.1 176.114 276.1 176.521C276.1 176.928 276.43 177.257 276.837 177.257H285.176C285.583 177.257 285.912 176.928 285.912 176.521C285.912 176.114 285.583 175.784 285.176 175.784Z" fill="white"/>
<path d="M257.637 179.232H256.295C255.888 179.232 255.558 179.562 255.558 179.968C255.558 180.375 255.888 180.705 256.295 180.705H257.637C258.043 180.705 258.373 180.375 258.373 179.968C258.373 179.562 258.043 179.232 257.637 179.232Z" fill="white"/>
<path d="M272.982 179.232H271.64C271.233 179.232 270.903 179.562 270.903 179.968C270.903 180.375 271.233 180.705 271.64 180.705H272.982C273.388 180.705 273.718 180.375 273.718 179.968C273.718 179.562 273.388 179.232 272.982 179.232Z" fill="white"/>
<path d="M277.329 179.232H275.988C275.581 179.232 275.251 179.562 275.251 179.968C275.251 180.375 275.581 180.705 275.988 180.705H277.329C277.736 180.705 278.066 180.375 278.066 179.968C278.066 179.562 277.736 179.232 277.329 179.232Z" fill="white"/>
<path d="M268.808 179.109H260.469C260.062 179.109 259.732 179.439 259.732 179.845C259.732 180.252 260.062 180.582 260.469 180.582H268.808C269.214 180.582 269.544 180.252 269.544 179.845C269.544 179.439 269.214 179.109 268.808 179.109Z" fill="white"/>
<path d="M260.706 192.452H259.364C258.957 192.452 258.628 192.782 258.628 193.189C258.628 193.596 258.957 193.925 259.364 193.925H260.706C261.113 193.925 261.442 193.596 261.442 193.189C261.442 192.782 261.113 192.452 260.706 192.452Z" fill="white"/>
<path d="M265.054 192.452H263.712C263.305 192.452 262.975 192.782 262.975 193.189C262.975 193.596 263.305 193.925 263.712 193.925H265.054C265.46 193.925 265.79 193.596 265.79 193.189C265.79 192.782 265.46 192.452 265.054 192.452Z" fill="white"/>
<path d="M276.992 192.575H268.653C268.246 192.575 267.916 192.905 267.916 193.312C267.916 193.719 268.246 194.048 268.653 194.048H276.992C277.398 194.048 277.728 193.719 277.728 193.312C277.728 192.905 277.398 192.575 276.992 192.575Z" fill="white"/>
<path d="M245.361 192.452H244.019C243.612 192.452 243.283 192.782 243.283 193.189C243.283 193.596 243.612 193.925 244.019 193.925H245.361C245.768 193.925 246.098 193.596 246.098 193.189C246.098 192.782 245.768 192.452 245.361 192.452Z" fill="white"/>
<path d="M256.532 192.575H248.193C247.787 192.575 247.457 192.905 247.457 193.312C247.457 193.719 247.787 194.048 248.193 194.048H256.532C256.939 194.048 257.269 193.719 257.269 193.312C257.269 192.905 256.939 192.575 256.532 192.575Z" fill="white"/>
<path d="M249.453 189.127H248.111C247.704 189.127 247.375 189.457 247.375 189.864C247.375 190.271 247.704 190.601 248.111 190.601H249.453C249.86 190.601 250.189 190.271 250.189 189.864C250.189 189.457 249.86 189.127 249.453 189.127Z" fill="white"/>
<path d="M264.798 189.127H263.456C263.049 189.127 262.72 189.457 262.72 189.864C262.72 190.271 263.049 190.601 263.456 190.601H264.798C265.205 190.601 265.535 190.271 265.535 189.864C265.535 189.457 265.205 189.127 264.798 189.127Z" fill="white"/>
<path d="M269.145 189.127H267.804C267.397 189.127 267.067 189.457 267.067 189.864C267.067 190.271 267.397 190.601 267.804 190.601H269.145C269.552 190.601 269.882 190.271 269.882 189.864C269.882 189.457 269.552 189.127 269.145 189.127Z" fill="white"/>
<path d="M260.624 189.25H252.285C251.878 189.25 251.549 189.58 251.549 189.987C251.549 190.394 251.878 190.723 252.285 190.723H260.624C261.031 190.723 261.361 190.394 261.361 189.987C261.361 189.58 261.031 189.25 260.624 189.25Z" fill="white"/>
<path d="M253.545 185.803H252.203C251.796 185.803 251.467 186.133 251.467 186.539C251.467 186.946 251.796 187.276 252.203 187.276H253.545C253.952 187.276 254.281 186.946 254.281 186.539C254.281 186.133 253.952 185.803 253.545 185.803Z" fill="white"/>
<path d="M268.89 185.803H267.548C267.141 185.803 266.812 186.133 266.812 186.539C266.812 186.946 267.141 187.276 267.548 187.276H268.89C269.297 187.276 269.626 186.946 269.626 186.539C269.626 186.133 269.297 185.803 268.89 185.803Z" fill="white"/>
<path d="M273.237 185.803H271.896C271.489 185.803 271.159 186.133 271.159 186.539C271.159 186.946 271.489 187.276 271.896 187.276H273.237C273.644 187.276 273.974 186.946 273.974 186.539C273.974 186.133 273.644 185.803 273.237 185.803Z" fill="white"/>
<path d="M264.716 185.926H256.377C255.97 185.926 255.64 186.255 255.64 186.662C255.64 187.069 255.97 187.399 256.377 187.399H264.716C265.123 187.399 265.452 187.069 265.452 186.662C265.452 186.255 265.123 185.926 264.716 185.926Z" fill="white"/>
<path d="M257.637 182.478H256.295C255.888 182.478 255.558 182.808 255.558 183.215C255.558 183.622 255.888 183.951 256.295 183.951H257.637C258.043 183.951 258.373 183.622 258.373 183.215C258.373 182.808 258.043 182.478 257.637 182.478Z" fill="white"/>
<path d="M272.982 182.478H271.64C271.233 182.478 270.903 182.808 270.903 183.215C270.903 183.622 271.233 183.951 271.64 183.951H272.982C273.388 183.951 273.718 183.622 273.718 183.215C273.718 182.808 273.388 182.478 272.982 182.478Z" fill="white"/>
<path d="M277.329 182.478H275.988C275.581 182.478 275.251 182.808 275.251 183.215C275.251 183.622 275.581 183.951 275.988 183.951H277.329C277.736 183.951 278.066 183.622 278.066 183.215C278.066 182.808 277.736 182.478 277.329 182.478Z" fill="white"/>
<path d="M268.808 182.601H260.469C260.062 182.601 259.732 182.931 259.732 183.337C259.732 183.744 260.062 184.074 260.469 184.074H268.808C269.214 184.074 269.544 183.744 269.544 183.337C269.544 182.931 269.214 182.601 268.808 182.601Z" fill="white"/>
<path d="M238.227 231.417L231.929 221.461L251.699 205.701L259.859 196.66C260.919 195.486 262.269 194.61 263.774 194.121C265.278 193.631 266.885 193.545 268.433 193.871C269.982 194.197 271.417 194.924 272.597 195.979C273.776 197.034 274.658 198.379 275.154 199.882C275.89 202.108 275.732 204.533 274.713 206.645C273.695 208.757 271.896 210.391 269.696 211.201L256.792 215.955L238.227 231.417Z" fill="#FFB6B6"/>
<path d="M90.4424 159.229V207.618H124.342V159.229C124.343 158.88 124.232 158.541 124.025 158.261C123.819 157.981 123.528 157.774 123.196 157.672C123.039 157.62 122.875 157.594 122.71 157.596H92.0796C91.8649 157.596 91.6522 157.638 91.4536 157.719C91.2551 157.801 91.0747 157.921 90.9227 158.073C90.7706 158.225 90.6499 158.405 90.5675 158.603C90.4851 158.801 90.4426 159.014 90.4424 159.229ZM103.672 175.855C103.681 174.901 104.066 173.989 104.744 173.318C105.421 172.647 106.337 172.27 107.291 172.27C108.245 172.27 109.16 172.647 109.838 173.318C110.516 173.989 110.901 174.901 110.91 175.855V181.47C110.905 182.426 110.521 183.342 109.843 184.017C109.165 184.692 108.247 185.07 107.291 185.07C106.334 185.07 105.417 184.692 104.739 184.017C104.06 183.342 103.677 182.426 103.672 181.47V175.855Z" fill="#2F2E41"/>
<path d="M90.3386 206.071V210.737C90.3394 210.978 90.4354 211.21 90.6059 211.382C90.7764 211.553 91.0075 211.65 91.2492 211.652H123.536C123.778 211.651 124.009 211.554 124.18 211.382C124.35 211.211 124.446 210.979 124.446 210.737V206.071H90.3386Z" fill="#3F3D56"/>
<path d="M37.1133 86.3236V174.676C37.1142 175.802 37.5618 176.881 38.358 177.677C39.1541 178.474 40.2337 178.921 41.3596 178.922H172.288C173.414 178.921 174.494 178.474 175.29 177.677C176.086 176.881 176.534 175.802 176.535 174.676V86.3236C176.532 85.1987 176.084 84.1207 175.288 83.3257C174.492 82.5306 173.413 82.0835 172.288 82.082H41.3596C40.2347 82.0835 39.1561 82.5307 38.3602 83.3257C37.5644 84.1207 37.116 85.1987 37.1133 86.3236Z" fill="#3F3D56"/>
<path d="M40.1843 87.4231V173.586C40.1854 174.188 40.4248 174.764 40.8502 175.19C41.2755 175.615 41.8522 175.854 42.4538 175.855H171.198C171.8 175.854 172.376 175.615 172.802 175.19C173.227 174.764 173.466 174.188 173.467 173.586V87.4231C173.467 86.8208 173.228 86.2431 172.803 85.8168C172.378 85.3904 171.8 85.1502 171.198 85.1489H42.4538C41.8515 85.1502 41.2743 85.3904 40.8488 85.8168C40.4234 86.2431 40.1844 86.8208 40.1843 87.4231Z" fill="white"/>
<path d="M64.0771 211.336C64.2082 211.5 64.3748 211.633 64.5643 211.723C64.7539 211.814 64.9616 211.861 65.1718 211.86H141.766C141.976 211.859 142.183 211.812 142.372 211.722C142.561 211.632 142.727 211.501 142.859 211.338C142.991 211.175 143.085 210.985 143.134 210.782C143.184 210.578 143.187 210.366 143.144 210.161L141.955 204.513C141.906 204.283 141.8 204.069 141.646 203.89C141.493 203.711 141.297 203.574 141.077 203.49C140.918 203.427 140.748 203.395 140.577 203.395H66.356C66.1849 203.395 66.0152 203.427 65.8559 203.49C65.6358 203.574 65.4402 203.711 65.287 203.89C65.1337 204.069 65.0276 204.283 64.9783 204.513L63.7893 210.161C63.747 210.366 63.7509 210.578 63.8007 210.781C63.8505 210.984 63.9449 211.174 64.0771 211.336Z" fill="#2F2E41"/>
<path d="M167.02 97.0182H46.5545C46.4293 97.0154 46.3101 96.9637 46.2225 96.8742C46.135 96.7846 46.0859 96.6644 46.0859 96.5391C46.0859 96.4139 46.135 96.2936 46.2225 96.2041C46.3101 96.1145 46.4293 96.0628 46.5545 96.0601H167.02C167.145 96.0628 167.264 96.1145 167.352 96.2041C167.439 96.2936 167.488 96.4139 167.488 96.5391C167.488 96.6644 167.439 96.7846 167.352 96.8742C167.264 96.9637 167.145 97.0154 167.02 97.0182Z" fill="#3F3D56"/>
<path d="M54.7548 93.6142C56.3053 93.6142 57.5623 92.3292 57.5623 90.7441C57.5623 89.159 56.3053 87.874 54.7548 87.874C53.2042 87.874 51.9473 89.159 51.9473 90.7441C51.9473 92.3292 53.2042 93.6142 54.7548 93.6142Z" fill="#3F3D56"/>
<path d="M64.4533 93.6142C66.0038 93.6142 67.2608 92.3292 67.2608 90.7441C67.2608 89.159 66.0038 87.874 64.4533 87.874C62.9027 87.874 61.6458 89.159 61.6458 90.7441C61.6458 92.3292 62.9027 93.6142 64.4533 93.6142Z" fill="#3F3D56"/>
<path d="M74.1522 93.6142C75.7028 93.6142 76.9597 92.3292 76.9597 90.7441C76.9597 89.159 75.7028 87.874 74.1522 87.874C72.6017 87.874 71.3447 89.159 71.3447 90.7441C71.3447 92.3292 72.6017 93.6142 74.1522 93.6142Z" fill="#3F3D56"/>
<path d="M161.18 88.5837H154.291C154.155 88.5869 154.026 88.6432 153.93 88.7407C153.835 88.8381 153.782 88.9689 153.782 89.1051C153.782 89.2413 153.835 89.3721 153.93 89.4695C154.026 89.567 154.155 89.6233 154.291 89.6264H161.18C161.317 89.6245 161.448 89.5687 161.544 89.4712C161.64 89.3736 161.694 89.2421 161.694 89.1051C161.694 88.9681 161.64 88.8366 161.544 88.739C161.448 88.6415 161.317 88.5857 161.18 88.5837Z" fill="#3F3D56"/>
<path d="M161.18 90.5417H154.291C154.155 90.5448 154.025 90.601 153.93 90.6985C153.835 90.7959 153.781 90.9268 153.781 91.0631C153.781 91.1994 153.835 91.3303 153.93 91.4278C154.025 91.5252 154.155 91.5814 154.291 91.5845H161.18C161.317 91.5828 161.448 91.5271 161.544 91.4296C161.641 91.332 161.695 91.2003 161.695 91.0631C161.695 90.9259 161.641 90.7942 161.544 90.6966C161.448 90.5991 161.317 90.5434 161.18 90.5417Z" fill="#3F3D56"/>
<path d="M161.18 92.4998H154.291C154.155 92.5029 154.026 92.5593 153.93 92.6567C153.835 92.7541 153.782 92.8849 153.782 93.0211C153.782 93.1573 153.835 93.2881 153.93 93.3855C154.026 93.483 154.155 93.5393 154.291 93.5425H161.18C161.317 93.5405 161.448 93.4848 161.544 93.3872C161.64 93.2896 161.694 93.1581 161.694 93.0211C161.694 92.8841 161.64 92.7526 161.544 92.655C161.448 92.5575 161.317 92.5017 161.18 92.4998Z" fill="#3F3D56"/>
<path d="M327.249 208.119C327.457 208.724 327.851 209.248 328.375 209.615C328.9 209.982 329.527 210.173 330.166 210.162L342.666 209.84C343.31 209.828 343.933 209.607 344.442 209.211C344.951 208.815 345.317 208.265 345.488 207.643L347.256 188.729C347.884 189.014 348.567 189.154 349.256 189.14C349.854 189.125 350.444 188.992 350.991 188.75C351.538 188.507 352.032 188.158 352.445 187.725C352.857 187.291 353.18 186.78 353.395 186.221C353.61 185.663 353.713 185.067 353.698 184.469C353.683 183.87 353.551 183.281 353.308 182.734C353.065 182.187 352.717 181.693 352.283 181.28C351.849 180.868 351.338 180.545 350.78 180.329C350.221 180.114 349.625 180.011 349.027 180.026C348.752 180.025 348.477 180.054 348.208 180.112C347.915 179.795 347.559 179.543 347.163 179.372C346.767 179.201 346.34 179.115 345.908 179.119L326.682 179.616C326.522 179.622 326.363 179.641 326.207 179.675C325.786 179.753 325.386 179.921 325.034 180.167C324.683 180.414 324.389 180.732 324.171 181.101C323.953 181.471 323.817 181.883 323.771 182.309C323.726 182.736 323.773 183.167 323.908 183.574L327.249 208.119ZM347.619 187.445L348.878 182.938C349.021 182.417 349.024 181.868 348.887 181.346C348.948 181.346 349.002 181.317 349.063 181.317C349.926 181.299 350.761 181.624 351.385 182.221C352.008 182.817 352.37 183.637 352.39 184.5C352.41 185.363 352.088 186.199 351.493 186.824C350.898 187.449 350.079 187.813 349.216 187.836C348.658 187.853 348.106 187.718 347.619 187.445Z" fill="#2F2E41"/>
<path d="M326.207 179.674C326.617 182.016 331.222 183.663 336.76 183.377C341.852 183.142 346.015 181.354 346.778 179.235C346.496 179.151 346.202 179.112 345.908 179.119L326.681 179.615C326.522 179.621 326.363 179.641 326.207 179.674Z" fill="#3F3D56"/>
<path d="M337.775 197.725C337.8 197.719 337.824 197.708 337.846 197.694L340.56 195.917C340.593 195.895 340.62 195.866 340.639 195.832C340.657 195.797 340.667 195.759 340.667 195.72C340.667 195.68 340.657 195.642 340.639 195.607C340.62 195.573 340.593 195.544 340.56 195.522L337.739 193.674C337.713 193.657 337.684 193.645 337.654 193.64C337.623 193.634 337.592 193.634 337.561 193.64C337.531 193.646 337.502 193.659 337.476 193.676C337.451 193.693 337.429 193.716 337.412 193.742C337.395 193.768 337.383 193.797 337.377 193.827C337.371 193.858 337.372 193.889 337.378 193.92C337.384 193.95 337.397 193.979 337.414 194.004C337.432 194.03 337.454 194.052 337.48 194.069L340 195.719L337.587 197.299C337.541 197.329 337.506 197.376 337.49 197.429C337.475 197.483 337.478 197.54 337.501 197.591C337.523 197.642 337.563 197.684 337.613 197.708C337.663 197.733 337.72 197.739 337.775 197.725Z" fill="#003ADF"/>
<path d="M333.487 197.923C333.533 197.911 333.574 197.886 333.605 197.851C333.637 197.816 333.657 197.773 333.663 197.726C333.669 197.68 333.662 197.632 333.641 197.59C333.62 197.548 333.588 197.513 333.547 197.489L331.045 196.055L333.463 194.259C333.488 194.24 333.509 194.217 333.525 194.19C333.541 194.164 333.551 194.134 333.556 194.104C333.56 194.073 333.559 194.042 333.551 194.012C333.544 193.982 333.53 193.954 333.512 193.929C333.493 193.904 333.47 193.883 333.443 193.867C333.417 193.851 333.387 193.841 333.357 193.836C333.326 193.832 333.295 193.833 333.265 193.841C333.235 193.848 333.207 193.862 333.182 193.88L330.474 195.891C330.443 195.915 330.418 195.946 330.401 195.981C330.385 196.017 330.377 196.056 330.379 196.095C330.382 196.134 330.394 196.172 330.414 196.205C330.435 196.238 330.463 196.266 330.497 196.285L333.312 197.899C333.365 197.929 333.428 197.938 333.487 197.923Z" fill="#003ADF"/>
<path d="M337.505 199.282C337.527 199.277 337.549 199.267 337.569 199.255C337.596 199.239 337.619 199.218 337.637 199.193C337.655 199.168 337.669 199.139 337.676 199.109C337.683 199.079 337.685 199.048 337.68 199.017C337.675 198.987 337.664 198.957 337.648 198.931L333.8 192.605C333.768 192.551 333.715 192.513 333.655 192.498C333.594 192.484 333.53 192.494 333.476 192.526C333.423 192.559 333.385 192.611 333.37 192.672C333.355 192.733 333.365 192.797 333.397 192.85L337.245 199.176C337.271 199.219 337.311 199.253 337.357 199.272C337.404 199.291 337.456 199.295 337.505 199.282Z" fill="#003ADF"/>
<path d="M121.181 123.062H100.331C99.4803 123.062 98.7908 123.752 98.7908 124.602V126.639C98.7908 127.49 99.4803 128.179 100.331 128.179H121.181C122.031 128.179 122.721 127.49 122.721 126.639V124.602C122.721 123.752 122.031 123.062 121.181 123.062Z" fill="#003ADF"/>
<path d="M133.334 133.297H88.1778C87.3272 133.297 86.6377 133.986 86.6377 134.837V136.874C86.6377 137.724 87.3272 138.414 88.1778 138.414H133.334C134.185 138.414 134.874 137.724 134.874 136.874V134.837C134.874 133.986 134.185 133.297 133.334 133.297Z" fill="#E6E6E6"/>
<path d="M133.334 143.531H88.1778C87.3272 143.531 86.6377 144.22 86.6377 145.071V147.108C86.6377 147.958 87.3272 148.648 88.1778 148.648H133.334C134.185 148.648 134.874 147.958 134.874 147.108V145.071C134.874 144.22 134.185 143.531 133.334 143.531Z" fill="#E6E6E6"/>
<path d="M137.162 177.802L137.264 178.125L137.27 178.135L140.348 187.495L143.89 198.281L150.553 218.551L150.618 221.7V221.711L151.113 247.04L149.741 250.474L151.285 256.104C151.285 256.104 150.575 247.594 146.764 252.481C144.606 255.258 142.082 258.1 140.009 260.764C143.029 261.986 146.097 263.091 149.213 264.08C149.886 264.295 150.564 264.499 151.242 264.704C151.388 264.747 151.533 264.79 151.678 264.833C162.008 267.888 172.688 269.605 183.455 269.941C184.015 269.957 184.564 269.968 185.097 269.979C185.285 269.984 185.468 269.989 185.651 269.989C186.254 269.995 186.852 270 187.454 270C188.671 270 189.882 269.982 191.088 269.946C200.011 269.695 208.883 268.495 217.552 266.367C217.493 262.788 217.332 258.606 217.1 254.138C216.993 251.948 214.576 249.574 214.431 247.281C214.328 245.559 216.497 243.939 216.384 242.19C215.652 231.42 214.737 235.554 214.059 227.927C213.989 227.179 213.925 226.463 213.865 225.78C213.429 220.882 213.128 217.819 213.128 217.819L216.024 199.568L220.572 170.912L220.222 170.336L219.829 170.143L195.84 158.269L194.538 154.932C194.158 153.971 193.5 153.145 192.647 152.561C191.794 151.977 190.786 151.661 189.753 151.654L173.95 151.59C173.13 151.586 172.321 151.778 171.59 152.15C170.859 152.521 170.227 153.062 169.747 153.727L165.468 159.653L137.162 177.802Z" fill="#3F3D56"/>
<path d="M154.197 214.041L150.618 221.7L148.174 226.931L143.971 248.94L141.866 251.173L140.063 243.266L121.192 247.456C120.573 244.017 121.026 247.572 120.644 243.799C120.751 243.692 120.864 243.584 120.978 243.476C121.279 243.197 121.532 242.933 121.527 242.68C121.311 229.665 121.957 207.517 127.35 194.099C128.195 191.908 129.309 189.831 130.666 187.915C130.773 187.77 130.876 187.624 130.978 187.479C133.464 183.997 135.036 180.568 137.264 178.13V178.124C137.278 178.113 137.291 178.101 137.302 178.087C137.31 178.083 137.317 178.077 137.324 178.071L152.631 169.954L153.288 188.405L153.756 201.667L154.197 214.041Z" fill="#3F3D56"/>
<path d="M209.392 216.216L213.863 225.782L215.423 229.114L219.626 251.12L221.723 253.348L223.531 245.443L224.38 245.269L239.694 242.097L244.158 256.273C245.164 254.597 245.56 252.625 245.28 250.69C245 248.755 244.06 246.976 242.619 245.655C242.314 245.379 242.06 245.11 242.068 244.856C242.322 229.549 241.385 201.599 232.93 190.095C230.244 186.444 228.633 182.808 226.289 180.267C226.281 180.26 226.281 180.253 226.274 180.253L220.569 170.912L220.221 170.338L219.829 170.142L209.392 216.216Z" fill="#3F3D56"/>
<path d="M182.308 147.093C193.919 147.093 203.331 137.68 203.331 126.069C203.331 114.459 193.919 105.046 182.308 105.046C170.697 105.046 161.285 114.459 161.285 126.069C161.285 137.68 170.697 147.093 182.308 147.093Z" fill="#FFB6B6"/>
<path d="M210.723 111.385C210.56 111.211 210.364 111.071 210.146 110.975C209.928 110.878 209.692 110.827 209.454 110.823L209.77 109.946C209.873 109.669 209.901 109.37 209.851 109.08C209.8 108.789 209.674 108.517 209.483 108.291C209.293 108.065 209.047 107.894 208.769 107.796C208.491 107.697 208.191 107.673 207.902 107.728L206.75 107.95L206.859 107.181C206.9 106.894 206.867 106.602 206.761 106.333C206.656 106.063 206.482 105.826 206.256 105.644C206.031 105.462 205.763 105.342 205.477 105.295C205.191 105.249 204.898 105.277 204.627 105.378C204.38 105.476 204.115 105.516 203.85 105.497C203.586 105.479 203.329 105.401 203.098 105.27C202.867 105.143 202.666 104.967 202.51 104.754C202.353 104.542 202.245 104.297 202.193 104.038L201.792 102.104L201.749 102C199.796 98.7447 196.04 96.3762 191.445 95.508C187.354 94.7295 183.16 95.1259 179.116 95.4986C177.512 95.6496 175.7 95.8194 174.19 96.7442C172.907 97.5368 171.822 99.1222 172.044 100.722C168.057 99.4996 163.782 101.939 161.664 105.015C159.154 108.676 158.743 113.262 158.677 116.848C158.498 125.331 160.248 132.272 163.867 137.481C164.131 137.858 164.197 138.646 164.721 138.91L164.612 138.736C165.198 139.028 165.792 139.5 165.57 140.005C164.933 141.458 169.165 144.671 172.147 145.733C177.587 147.672 184.82 147.507 189.907 146.809L190.086 145.605C191.921 145.355 193.214 144.879 193.577 144.133C194.219 143.586 194.766 143.095 195.243 142.642L195.247 142.638C195.257 142.628 195.276 142.614 195.285 142.605C197.583 140.401 198.116 139.146 198.357 137.235C198.588 135.362 198.177 133.461 197.758 131.748C206.599 133.116 194.276 122.331 202.513 120.245C202.608 120.216 202.704 120.193 202.801 120.175C203.042 120.118 203.282 120.061 203.514 119.995C204.628 119.693 205.695 119.237 206.684 118.641C208.987 117.24 209.746 115.381 210.935 113.286C211.107 112.988 211.179 112.643 211.141 112.301C211.102 111.959 210.956 111.638 210.723 111.385Z" fill="#2F2E41"/>
<path d="M256.664 217.713C256.659 218.539 256.65 219.695 256.612 221.124C256.607 221.322 256.602 221.525 256.598 221.733C256.536 224.361 256.475 226.564 256.376 229.013C256.371 229.183 256.367 229.348 256.357 229.518C256.225 232.934 256.017 236.911 255.659 243.21C254.994 254.845 253.833 244.809 252.668 248.89C252.611 249.093 252.55 249.334 252.493 249.617C252.316 250.644 252.019 251.647 251.606 252.604C250.988 252.972 250.351 253.326 249.723 253.679C247.935 254.675 246.119 255.633 244.288 256.543C243.26 257.053 242.226 257.553 241.188 258.034C241.023 258.11 240.863 258.185 240.702 258.256C235.387 260.715 229.909 262.805 224.307 264.512C223.212 264.843 222.122 265.163 221.018 265.461C219.867 265.781 218.716 266.083 217.55 266.366C208.881 268.495 200.01 269.695 191.086 269.948C189.883 269.985 188.671 269.999 187.453 269.999C186.849 269.999 186.255 269.995 185.651 269.99C185.467 269.99 185.283 269.985 185.099 269.981C184.566 269.966 184.014 269.957 183.457 269.943C172.69 269.607 162.01 267.89 151.68 264.833L151.241 264.706C150.562 264.498 149.887 264.295 149.213 264.078C146.099 263.092 143.03 261.988 140.007 260.766C137.7 259.837 135.42 258.839 133.166 257.775C133.146 257.769 133.126 257.76 133.11 257.746C132.638 257.529 132.161 257.303 131.689 257.072C131.628 257.039 131.562 257.006 131.496 256.973C129.736 256.114 127.995 255.214 126.273 254.274C124.824 250.948 122.786 250.311 121.522 247.385C121.154 246.516 120.888 245.607 120.729 244.677C120.729 244.668 120.724 244.658 120.724 244.644C120.857 246.399 120.163 241.53 120.72 244.625C120.715 244.569 120.71 244.507 120.706 244.436C120.691 244.267 120.673 244.059 120.644 243.8C119.026 227.998 119.13 209.928 118.427 195.037C118.379 194.075 118.331 193.153 118.28 192.273C118.266 191.98 118.247 191.692 118.229 191.409C118.262 191.324 118.299 191.235 118.342 191.15C118.351 191.125 118.362 191.102 118.375 191.079C118.389 191.05 118.404 191.021 118.422 190.994C118.431 190.98 118.446 190.961 118.455 190.947C118.462 190.931 118.47 190.915 118.479 190.9C118.521 190.834 118.568 190.763 118.62 190.697C118.644 190.668 118.663 190.645 118.686 190.621C118.702 190.597 118.721 190.575 118.743 190.555C118.757 190.533 118.775 190.512 118.795 190.494C118.814 190.475 118.832 190.451 118.856 190.428C118.866 190.413 118.879 190.4 118.894 190.39C118.931 190.347 118.972 190.308 119.016 190.272C119.185 190.117 119.365 189.975 119.554 189.847C119.62 189.805 119.691 189.763 119.757 189.715C120.233 189.431 120.733 189.191 121.253 188.998C121.432 188.932 121.611 188.871 121.805 188.805C121.876 188.786 121.942 188.762 122.012 188.739C122.116 188.706 122.22 188.673 122.329 188.649C122.866 188.489 123.447 188.352 124.074 188.224C124.15 188.21 124.23 188.196 124.31 188.177C124.423 188.154 124.541 188.135 124.659 188.116C124.82 188.088 124.985 188.059 125.15 188.031C126.551 187.809 128.141 187.644 129.897 187.536C130.062 187.526 130.227 187.517 130.392 187.507C130.585 187.498 130.779 187.488 130.977 187.479C131.142 187.47 131.312 187.465 131.482 187.46C131.647 187.451 131.817 187.446 131.991 187.441C132.468 187.427 132.959 187.413 133.459 187.403C134.884 187.375 136.384 187.385 137.96 187.418C138.691 187.437 139.437 187.455 140.201 187.488C140.253 187.488 140.3 187.493 140.347 187.493C141.012 187.517 141.682 187.545 142.371 187.583C142.853 187.606 143.339 187.63 143.824 187.658C144.282 187.687 144.745 187.715 145.212 187.748C145.575 187.767 145.938 187.795 146.306 187.819C146.618 187.842 146.929 187.866 147.24 187.885L147.665 187.913C147.896 187.932 148.127 187.946 148.363 187.97C148.882 188.012 149.401 188.055 149.93 188.097C150.453 188.144 150.987 188.191 151.52 188.239C152.053 188.286 152.591 188.338 153.129 188.39C153.185 188.394 153.237 188.399 153.289 188.404C153.78 188.456 154.27 188.503 154.766 188.555C154.879 188.564 154.997 188.574 155.11 188.588C155.583 188.635 156.064 188.691 156.541 188.741C156.687 188.757 156.833 188.772 156.979 188.789C157.353 188.829 157.721 188.864 158.097 188.909C158.592 188.965 159.097 189.017 159.588 189.083C159.97 189.126 160.352 189.168 160.734 189.215C161.334 189.286 161.942 189.362 162.551 189.442C162.782 189.47 163.013 189.498 163.244 189.531C164.981 189.748 166.736 189.989 168.519 190.239C171.223 190.621 173.969 191.036 176.734 191.485C179.503 191.933 182.288 192.406 185.089 192.905C185.797 193.032 186.505 193.16 187.217 193.292C187.538 193.353 187.859 193.414 188.18 193.476C188.727 193.575 189.274 193.679 189.822 193.782C190.369 193.886 190.916 193.99 191.464 194.099C192.115 194.226 192.771 194.353 193.422 194.481C197.71 195.33 201.976 196.236 206.137 197.184C206.821 197.34 207.505 197.5 208.185 197.656C209.544 197.972 210.89 198.293 212.224 198.619C212.592 198.703 212.955 198.793 213.318 198.883C214.224 199.109 215.13 199.336 216.022 199.567L216.177 199.609C216.833 199.77 217.475 199.935 218.116 200.105C219.631 200.501 221.12 200.902 222.585 201.308C223.556 201.577 224.517 201.849 225.467 202.124C226.888 202.535 228.279 202.95 229.633 203.37C229.968 203.473 230.303 203.577 230.634 203.676C231.625 203.983 232.601 204.294 233.55 204.606C234.304 204.851 235.04 205.101 235.767 205.351C236.494 205.601 237.206 205.851 237.904 206.101C238.353 206.262 238.796 206.432 239.24 206.592C239.877 206.828 240.504 207.064 241.117 207.3C241.306 207.371 241.49 207.446 241.674 207.517C241.792 207.569 241.905 207.611 242.019 207.658C242.24 207.748 242.467 207.833 242.684 207.923C242.906 208.008 243.123 208.097 243.34 208.192C243.552 208.277 243.769 208.366 243.977 208.456C244.189 208.541 244.397 208.63 244.604 208.725C244.779 208.796 244.949 208.871 245.114 208.947C245.449 209.093 245.784 209.239 246.109 209.39C246.27 209.466 246.43 209.536 246.591 209.612L246.959 209.782C247.01 209.81 247.062 209.834 247.114 209.857C247.232 209.914 247.355 209.975 247.473 210.032C247.746 210.159 248.015 210.296 248.28 210.423C248.633 210.603 248.978 210.782 249.308 210.956C249.643 211.136 249.969 211.315 250.28 211.49C250.332 211.518 250.379 211.546 250.431 211.575C250.502 211.612 250.573 211.655 250.643 211.693C250.884 211.829 251.115 211.971 251.346 212.108C251.799 212.386 252.229 212.66 252.63 212.933C252.719 212.995 252.804 213.056 252.894 213.113C253.191 213.325 253.474 213.533 253.739 213.745C253.739 213.75 253.739 213.75 253.743 213.75C253.833 213.816 253.918 213.886 254.003 213.952C254.074 214.019 254.149 214.075 254.22 214.141C254.465 214.354 254.692 214.556 254.899 214.764C254.969 214.828 255.035 214.896 255.097 214.967C255.125 214.99 255.15 215.015 255.173 215.042C255.267 215.137 255.352 215.231 255.432 215.325C255.445 215.338 255.456 215.353 255.465 215.368C255.579 215.5 255.682 215.632 255.782 215.764C255.829 215.83 255.881 215.896 255.923 215.962C255.98 216.043 256.036 216.128 256.083 216.208C256.126 216.274 256.164 216.345 256.201 216.411C256.302 216.581 256.387 216.759 256.456 216.944C256.509 217.069 256.552 217.198 256.584 217.331C256.619 217.456 256.646 217.584 256.664 217.713Z" fill="#2F2E41"/>
<path opacity="0.2" d="M256.664 217.713C256.659 218.539 256.65 219.695 256.612 221.124C256.607 221.322 256.598 221.525 256.593 221.733C256.546 223.738 256.475 226.215 256.376 229.013C256.371 229.183 256.367 229.348 256.357 229.518C256.225 232.934 256.018 236.911 255.659 243.21C254.994 254.845 253.833 244.809 252.668 248.89C249.431 246.899 245.883 244.814 242.09 242.672C241.405 242.285 240.715 241.897 240.018 241.507C232.431 237.274 223.958 232.839 215.111 228.447C214.762 228.272 214.408 228.098 214.059 227.928C193.795 217.911 171.676 208.168 153.756 201.666C150.298 200.411 146.995 199.279 143.891 198.284C137.351 196.193 131.699 194.731 127.349 194.099C122.819 193.438 119.691 193.674 118.427 195.037C118.38 194.075 118.331 193.153 118.28 192.273C118.262 191.98 118.243 191.692 118.224 191.409C118.253 191.332 118.291 191.257 118.327 191.183C118.333 191.172 118.336 191.16 118.342 191.15C118.351 191.125 118.362 191.102 118.375 191.079C118.389 191.05 118.405 191.021 118.422 190.994C118.437 190.961 118.456 190.929 118.479 190.9C118.521 190.834 118.568 190.763 118.62 190.697C118.658 190.647 118.699 190.6 118.743 190.555C118.757 190.533 118.775 190.512 118.795 190.494C118.814 190.475 118.833 190.451 118.856 190.428C118.866 190.413 118.879 190.4 118.894 190.39C118.931 190.347 118.972 190.308 119.017 190.272C119.185 190.117 119.365 189.975 119.554 189.847C119.62 189.805 119.691 189.763 119.757 189.715C120.233 189.431 120.733 189.191 121.253 188.998C121.432 188.932 121.612 188.871 121.805 188.805C121.876 188.786 121.942 188.762 122.013 188.739C122.116 188.706 122.22 188.673 122.329 188.649C122.867 188.489 123.447 188.352 124.074 188.224C124.263 188.187 124.461 188.149 124.659 188.116C124.82 188.088 124.985 188.059 125.15 188.031C126.551 187.809 128.141 187.644 129.897 187.536C130.062 187.526 130.227 187.517 130.392 187.507C130.585 187.498 130.779 187.488 130.977 187.479C131.142 187.47 131.312 187.465 131.482 187.46C131.647 187.451 131.817 187.446 131.991 187.441C132.468 187.427 132.959 187.413 133.459 187.403C134.884 187.38 136.384 187.389 137.96 187.422C138.691 187.437 139.437 187.46 140.201 187.493C140.248 187.493 140.3 187.498 140.347 187.498C141.013 187.517 141.687 187.55 142.371 187.583C142.853 187.606 143.339 187.63 143.825 187.658C144.282 187.687 144.745 187.715 145.212 187.748C145.575 187.767 145.938 187.795 146.306 187.819C146.618 187.842 146.929 187.866 147.241 187.885C147.613 187.913 147.986 187.941 148.363 187.97C148.882 188.012 149.401 188.055 149.93 188.097C150.454 188.144 150.987 188.191 151.52 188.239C152.053 188.286 152.591 188.338 153.129 188.39C153.185 188.394 153.237 188.399 153.289 188.404C153.78 188.456 154.271 188.503 154.766 188.555C157.512 188.833 160.338 189.159 163.244 189.531C164.981 189.753 166.739 189.991 168.519 190.244C171.223 190.626 173.969 191.041 176.734 191.485C179.503 191.933 182.289 192.406 185.09 192.905C185.797 193.032 186.505 193.16 187.217 193.292C188.086 193.452 188.954 193.616 189.822 193.782C190.369 193.886 190.916 193.99 191.464 194.099C192.115 194.226 192.771 194.353 193.422 194.481C197.711 195.33 201.976 196.236 206.137 197.184C206.821 197.34 207.505 197.5 208.185 197.656C209.544 197.972 210.89 198.293 212.224 198.619C212.592 198.708 212.955 198.798 213.318 198.887C214.229 199.114 215.13 199.34 216.022 199.567V199.572C216.074 199.581 216.126 199.595 216.177 199.609C216.829 199.774 217.475 199.94 218.117 200.109C219.631 200.506 221.121 200.905 222.585 201.308C223.557 201.582 224.519 201.85 225.467 202.124C226.888 202.539 228.28 202.955 229.634 203.37C229.969 203.474 230.304 203.577 230.634 203.676C231.625 203.988 232.597 204.298 233.55 204.606C234.305 204.851 235.041 205.101 235.767 205.351C236.494 205.601 237.206 205.851 237.905 206.102C238.357 206.262 238.801 206.427 239.24 206.587C239.881 206.823 240.504 207.059 241.118 207.3C241.306 207.371 241.49 207.446 241.674 207.517C242.019 207.649 242.354 207.786 242.684 207.923C242.906 208.008 243.123 208.097 243.34 208.192C243.552 208.277 243.769 208.366 243.977 208.456C244.189 208.541 244.397 208.63 244.604 208.725C244.779 208.796 244.949 208.871 245.114 208.947C245.449 209.093 245.784 209.239 246.109 209.39C246.27 209.466 246.43 209.536 246.591 209.612L246.959 209.782C247.011 209.81 247.062 209.834 247.114 209.857C247.515 210.046 247.902 210.235 248.28 210.423C248.634 210.603 248.978 210.782 249.308 210.957C249.7 211.164 250.073 211.367 250.431 211.575C250.502 211.612 250.573 211.655 250.644 211.693C250.884 211.829 251.115 211.971 251.347 212.108C251.799 212.386 252.229 212.66 252.63 212.933C253.026 213.207 253.394 213.476 253.739 213.745C253.739 213.75 253.739 213.75 253.743 213.75C253.909 213.882 254.069 214.014 254.22 214.141C254.465 214.354 254.692 214.556 254.899 214.764C254.969 214.828 255.035 214.896 255.097 214.967C255.125 214.99 255.15 215.015 255.173 215.042C255.272 215.151 255.371 215.259 255.466 215.368C255.579 215.5 255.683 215.632 255.782 215.764C255.829 215.83 255.881 215.896 255.923 215.962C255.98 216.043 256.036 216.128 256.084 216.208C256.126 216.274 256.164 216.345 256.202 216.411C256.302 216.581 256.387 216.759 256.456 216.944C256.508 217.07 256.551 217.199 256.584 217.331C256.619 217.456 256.646 217.584 256.664 217.713Z" fill="black"/>
</g>
<defs>
<clipPath id="clip0_27_321">
<rect width="371.234" height="270" fill="white"/>
</clipPath>
</defs>
</svg>
