<svg width="174" height="174" viewBox="0 0 174 174" fill="none" xmlns="http://www.w3.org/2000/svg">
<path d="M86.6127 72.9719C89.276 72.972 91.8797 73.7601 94.0961 75.2369C96.3124 76.7137 98.0423 78.8133 99.068 81.2711C100.094 83.729 100.369 86.4354 99.8601 89.0496C99.3509 91.6638 98.0797 94.0689 96.2065 95.9621C94.3333 97.8553 91.9418 99.1521 89.3332 99.6891C86.7246 100.226 84.0154 99.9793 81.5468 98.9798C79.0781 97.9803 76.9603 96.2728 75.46 94.0723C73.9597 91.8718 73.144 89.2766 73.1155 86.6134C73.106 84.8315 73.4476 83.0651 74.1207 81.4151C74.7939 79.7652 75.7854 78.264 77.0388 76.9973C78.2921 75.7305 79.7827 74.723 81.4254 74.0324C83.068 73.3417 84.8307 72.9814 86.6127 72.9719ZM53.1945 144.355C57.7417 147.098 67.63 142.912 79.1784 132.085C75.3186 127.699 71.6811 123.122 68.2796 118.371C62.458 117.719 56.6755 116.756 50.957 115.484C47.276 130.93 48.6474 141.54 53.1945 144.355ZM58.3191 102.926L56.226 99.2445C55.41 101.272 54.7112 103.344 54.1328 105.452C56.0816 105.885 58.2469 106.246 60.4844 106.607L58.3191 102.926ZM105.523 97.44L111.37 86.6134L105.523 75.7868C103.358 71.9614 101.048 68.5691 98.955 65.1767C95.0574 64.9602 90.9433 64.9602 86.6127 64.9602C82.282 64.9602 78.1679 64.9602 74.2703 64.9602C72.1772 68.3525 69.8675 71.7449 67.7022 75.5703L61.8558 86.6134L67.7022 97.44C69.8675 101.265 72.1772 104.658 74.2703 108.05C78.1679 108.05 82.282 108.05 86.6127 108.05C90.9433 108.05 95.0574 108.05 98.955 108.05C101.048 104.658 103.358 101.265 105.523 97.44ZM86.6127 48.9368C85.2413 50.5247 83.7977 52.1848 82.3542 54.1336H90.8711C89.4276 52.1848 87.984 50.5247 86.6127 48.9368ZM86.6127 124.29C87.984 122.702 89.4276 121.042 90.8711 119.093H82.3542C83.7977 121.042 85.2413 122.702 86.6127 124.29ZM119.959 28.8715C115.484 26.1288 105.523 30.3151 94.0469 41.1417C97.9067 45.5279 101.544 50.1049 104.946 54.8554C110.762 55.412 116.545 56.2794 122.268 57.4538C125.949 42.0078 124.578 31.3977 119.959 28.5828M114.906 70.0126L116.999 73.6937C117.815 71.6664 118.514 69.5939 119.092 67.4864C117.144 67.0534 114.978 66.6925 112.741 66.3316L114.906 70.0126ZM125.372 19.4885C135.982 25.5514 137.137 41.5026 132.59 60.1243C150.923 65.5376 164.131 74.5598 164.131 86.6856C164.131 98.8114 150.923 107.834 132.59 113.247C137.065 131.869 135.91 147.82 125.372 153.883C114.834 159.946 100.471 153.017 86.6127 139.808C72.7546 153.017 58.3913 159.946 47.7812 153.883C37.1712 147.82 36.0885 132.23 40.5635 113.247C22.2304 107.834 9.02197 98.8114 9.02197 86.6856C9.02197 74.5598 22.2304 65.4654 40.5635 60.0521C36.0885 41.4304 37.2433 25.4792 47.7812 19.4163C58.3191 13.3534 72.7546 20.2824 86.6127 33.4909C100.471 20.2824 114.834 13.3534 125.372 19.4163M123.279 86.6134C125.786 91.9267 128.002 97.3721 129.919 102.926C145.076 98.3783 153.593 91.8824 153.593 86.6134C153.593 81.3445 144.86 74.8485 129.919 70.3013C128.002 75.8548 125.786 81.3001 123.279 86.6134ZM49.9465 86.6134C47.4398 81.3001 45.2231 75.8548 43.3062 70.3013C28.149 74.8485 19.632 81.3445 19.632 86.6134C19.632 91.8824 28.3655 98.3783 43.3062 102.926C45.2231 97.3721 47.4398 91.9267 49.9465 86.6134ZM114.906 102.926L112.741 106.607C114.978 106.607 117.144 105.885 119.092 105.452C118.514 103.344 117.815 101.272 116.999 99.2445L114.906 102.926ZM93.8304 132.085C105.307 142.912 115.484 147.098 119.742 144.355C124.001 141.613 125.733 131.219 122.052 115.484C116.328 116.659 110.546 117.526 104.729 118.083C101.336 122.932 97.698 127.605 93.8304 132.085ZM58.3191 70.3013L60.4844 66.6203C58.2469 66.6203 56.0816 67.3421 54.1328 67.7751C54.7112 69.8826 55.41 71.9551 56.226 73.9824L58.3191 70.3013ZM79.3949 41.1417C67.7022 30.3151 57.7417 26.1288 53.1945 28.8715C48.6474 31.6143 47.276 42.0078 50.957 57.7425C56.6808 56.5681 62.4632 55.7007 68.2796 55.1441C71.7435 50.2901 75.4534 45.6165 79.3949 41.1417Z" fill="#003ADF"/>
</svg>
