<svg width="174" height="47" viewBox="0 0 174 47" fill="none" xmlns="http://www.w3.org/2000/svg">
<path d="M91.7379 11.7122C97.0356 11.7122 102.237 15.9021 102.237 23.4633V23.5597C102.237 31.0727 97.0837 35.3108 91.7379 35.3108C87.9814 35.3108 85.6215 33.4326 84.0322 31.3135V39.3082C84.0322 40.7252 82.9204 41.8643 81.5146 41.9076L81.4315 41.9088C80.0349 41.9088 78.879 40.753 78.879 39.3563V14.4092C78.8309 13.0125 79.9867 11.8566 81.3834 11.8085H81.4315C82.8486 11.8085 83.9877 12.9203 84.0309 14.3261L84.0322 14.4092V15.9503C85.7178 13.5904 88.0777 11.7122 91.7379 11.7122ZM160.319 11.664C163.921 11.664 166.263 13.4831 167.943 15.7901L168.024 15.9021V14.361L168.025 14.278C168.068 12.9003 169.163 11.8049 170.54 11.7617L170.625 11.7603H170.673C172.09 11.8076 173.229 12.9203 173.227 14.3261L173.226 14.4092V30.2058C173.226 34.0105 172.214 36.852 170.336 38.7302C168.313 40.8011 165.135 41.7643 161.041 41.7643C158.007 41.7643 155.021 41.0901 152.276 39.7416C151.409 39.4526 150.831 38.5857 150.831 37.6707C150.879 36.4667 151.842 35.5516 153.046 35.5516C153.383 35.5516 153.672 35.5998 153.961 35.7443C156.08 36.9483 158.488 37.5262 160.896 37.5262C165.279 37.5262 167.783 35.4072 168.024 31.3135C166.435 33.3844 164.075 35.2627 160.319 35.2627C155.026 35.2627 149.923 31.1089 149.821 23.7359L149.82 23.5115V23.4152C149.82 15.854 155.021 11.664 160.319 11.664ZM139.754 11.8085C144.859 11.8085 147.797 15.2279 147.797 20.4774V32.662C147.845 34.0587 146.737 35.1663 145.341 35.2145H145.244C143.848 35.2627 142.692 34.1068 142.644 32.7102V22.0667C142.644 18.551 140.91 16.5282 137.779 16.5282C134.793 16.5282 132.674 18.6473 132.674 22.163V32.7102C132.674 34.155 131.519 35.3108 130.074 35.3108C128.629 35.3108 127.473 34.155 127.473 32.7102L127.521 14.4573C127.473 13.0607 128.629 11.9048 130.026 11.8566H130.074C131.491 11.8566 132.63 12.9685 132.673 14.3743L132.674 14.4573V15.5168C134.216 13.1088 136.912 11.7122 139.754 11.8085ZM68.0911 11.7603C70.5954 11.8085 73.0034 12.4346 75.2188 13.5904C75.9894 13.9757 76.471 14.6981 76.471 15.565C76.471 16.7209 75.5078 17.6841 74.3519 17.6841H74.3038C73.9667 17.6841 73.6295 17.5878 73.2924 17.4433C71.655 16.5282 69.873 15.9985 67.9948 15.9021C65.972 15.9021 64.8162 16.8653 64.8162 18.1175V18.2138C64.8162 19.8995 67.2723 20.5737 69.9212 21.4406C69.9934 21.4626 70.0658 21.4848 70.1384 21.5073L70.3565 21.5757C70.6113 21.6564 70.8673 21.7407 71.1227 21.8295L71.3414 21.9066C74.2182 22.9375 76.9526 24.5647 76.9526 28.0386V28.1349C76.9526 32.9028 73.2443 35.2627 68.5727 35.2627C65.4904 35.2145 62.4563 34.2995 59.9038 32.5657C59.2777 32.1804 58.8924 31.5061 58.9406 30.7837C58.9406 29.6279 59.8556 28.6647 61.0115 28.6647H61.0596C61.4449 28.6647 61.8302 28.761 62.1673 28.9536C64.0937 30.3021 66.3573 31.0245 68.669 31.1209C70.8844 31.1209 72.1847 30.1577 72.1847 28.6647V28.5684C72.1847 26.7864 69.7767 26.2085 67.1279 25.3898C66.8509 25.3095 66.571 25.2265 66.2905 25.1394L66.08 25.0733C63.0629 24.1132 60.0483 22.6265 60.0483 18.7436V18.6473C60.0483 14.361 63.6121 11.7603 68.0911 11.7603ZM122.272 11.8566C123.689 11.8566 124.828 12.9685 124.871 14.3743L124.872 14.4573V32.7102C124.872 34.155 123.717 35.2627 122.272 35.2627C120.827 35.2627 119.719 34.1068 119.719 32.7102V14.4573C119.671 13.0607 120.827 11.9048 122.224 11.8566H122.272ZM117.648 13.9757V14.361C117.648 15.6132 116.781 16.6727 115.577 16.8653C111.869 17.4914 109.365 20.7182 109.365 25.1971V32.662C109.365 34.1068 108.209 35.2145 106.764 35.2145C105.395 35.2145 104.257 34.1498 104.213 32.792L104.211 32.7099V32.662L104.26 14.4092C104.211 13.0125 105.367 11.8566 106.764 11.8085H106.812C108.229 11.8085 109.368 12.9203 109.412 14.3261L109.413 14.4092V15.6613C109.654 13.7349 112.832 11.8085 115.096 11.8085C116.396 11.7122 117.552 12.6754 117.648 13.9757ZM90.5821 16.2393C87.0663 16.2393 83.9841 19.1771 83.9841 23.4633V23.5597C83.9841 27.8941 87.0663 30.7837 90.5821 30.7837C94.0978 30.7837 97.0356 28.0386 97.0356 23.5597V23.4633C97.0356 19.0807 94.0978 16.2393 90.5821 16.2393ZM161.523 16.1911C158.043 16.1911 155.13 18.9743 155.07 23.2801L155.069 23.4152V23.5115C155.069 27.9904 157.959 30.7837 161.523 30.7837C165.05 30.7837 168.106 27.9056 168.121 23.6437L168.121 23.5115V23.4152C168.121 19.1289 165.038 16.1911 161.523 16.1911ZM124.921 5.49945V5.59577C124.921 7.04059 123.765 8.19644 122.32 8.19644C120.875 8.19644 119.719 7.04059 119.719 5.59577C119.719 4.17874 120.831 3.03967 122.237 2.99638L122.32 2.9951C123.717 2.94694 124.872 4.1028 124.921 5.49945Z" fill="#003ADF"/>
<path d="M7.11959 6.5593C16.3664 -2.39856 31.1517 -2.15776 40.1096 7.13722C41.1209 5.78873 41.9878 4.29575 42.6139 2.75461C45.5517 11.7125 47.3337 19.2255 46.6594 25.0529C46.3223 29.9653 44.3959 34.6851 41.2173 38.4416C32.9336 48.2663 18.1965 49.5185 8.37177 41.2349L8.18289 41.067L8.15023 41.0444C8.12751 41.0282 8.10503 41.0114 8.0828 40.9941C7.99389 40.9249 7.91308 40.8497 7.84038 40.7694L7.81411 40.7392L7.50488 40.4643C7.21591 40.2166 6.92695 39.969 6.66831 39.6909L6.54166 39.5493C-2.4162 30.3024 -2.12724 15.5172 7.11959 6.5593ZM10.5872 37.9118C9.72026 37.2376 8.46809 37.3339 7.79384 38.2008C7.20603 38.9565 7.20388 40.0051 7.78738 40.7083L7.81411 40.7392L8.18289 41.067L8.21908 41.0917C9.05342 41.6412 10.174 41.534 10.8231 40.7703L10.8761 40.7051C11.5504 39.8382 11.4059 38.5861 10.5872 37.9118ZM42.3731 5.16264C39.9651 10.2195 33.9932 14.0723 28.84 15.2764C26.8546 15.7481 24.9735 15.8669 23.1378 15.9601L22.5884 15.9876C20.1216 16.111 17.7267 16.2474 15.2587 17.2028C5.04869 21.1038 5.24133 33.2402 10.828 35.9854L11.1651 36.178C11.1651 36.178 14.862 35.443 18.678 34.4509L19.0199 34.3614C19.077 34.3463 19.134 34.3312 19.191 34.3161L19.5328 34.2247C21.1267 33.7951 22.6947 33.3269 23.9758 32.855C30.6219 30.3988 37.9423 24.3305 40.3504 17.2991C39.0982 24.6195 32.7892 31.6991 26.4801 34.9259C23.1089 36.6596 20.5082 37.0449 14.9698 38.9713C14.2955 39.2121 13.7657 39.453 13.7657 39.453C13.7975 39.4486 13.8292 39.4442 13.861 39.44L14.051 39.4149L14.2398 39.391C15.4618 39.2397 16.5591 39.164 16.5591 39.164C24.4092 38.7787 36.7383 41.3794 42.4694 33.7218C48.345 25.9198 45.0701 13.3018 42.3731 5.16264Z" fill="#003ADF"/>
</svg>
